<svg xmlns="http://www.w3.org/2000/svg" width="687" height="289" viewBox="0 0 687 289" fill="none">
<path d="M205.262 204.734V203.868L204.512 203.435L180.842 189.769V34.7758V33.9098L180.092 33.4768L172.369 29.0182L170.916 28.179L137.467 8.86743L137.023 8.61108L135.905 7.9655L135.217 7.56839V8.82841L135.1 8.97516L45.2626 121.683L44.9002 122.137L44.9389 122.717L47.0109 153.821L47.0641 154.62L47.7576 155.02L135.217 205.515V258.995V259.861L135.967 260.294L178.592 284.903L180.842 286.202V283.604V231.856L203.012 244.656L205.262 245.955V243.357V204.734ZM134.668 80.1002L135.217 79.3561V163.428L90.9847 137.89L134.658 80.1139L134.663 80.1071L134.668 80.1002ZM388.196 173.175L388.197 173.172C391.677 157.497 393.412 140.268 393.412 121.492V78.4257C393.412 63.4349 392.274 50.7581 389.973 40.42C387.679 29.9967 384.363 21.6941 379.96 15.6027C375.56 9.40131 370.175 5.24401 363.795 3.25128C357.468 1.27501 350.43 1.26722 342.731 3.13671C335.147 4.83166 326.967 8.23302 318.197 13.2961C307.22 19.6337 297.243 27.468 288.268 36.7945C279.281 46.0198 271.504 56.847 264.932 69.2646L264.929 69.2704C258.448 81.6477 253.425 95.643 249.848 111.245L249.847 111.25C246.365 126.7 244.63 143.818 244.63 162.593L244.63 205.66C244.63 220.765 245.769 233.556 248.069 244.007C250.364 254.435 253.681 262.79 258.079 268.991L258.089 269.006L258.101 269.021C262.592 275.033 267.957 279.169 274.203 281.332L274.213 281.336L274.223 281.339C280.552 283.435 287.595 283.562 295.304 281.805L295.315 281.802L295.325 281.8C302.997 279.935 311.221 276.452 319.993 271.387C330.971 265.049 340.949 257.214 349.924 247.886C358.91 238.548 366.638 227.692 373.112 215.328C379.693 202.779 384.718 188.725 388.196 173.175ZM346.319 73.8281L346.321 73.8405L346.323 73.8529C347.197 79.9689 347.64 87.4982 347.64 96.4555V152.681C347.64 163.907 347.001 173.771 345.732 182.282C344.463 190.791 342.517 198.188 339.909 204.488L339.907 204.493C337.393 210.636 334.313 215.849 330.681 220.154C327.138 224.299 323.077 227.691 318.493 230.337C314.756 232.495 311.384 233.777 308.363 234.255C305.543 234.66 303.111 234.178 300.988 232.868C298.915 231.358 297 228.881 295.303 225.296C293.703 221.536 292.449 216.564 291.574 210.333C290.795 204.036 290.403 196.414 290.403 187.459L290.403 131.233C290.403 120.125 291.041 110.378 292.309 101.983C293.677 93.4099 295.624 86.1272 298.131 80.1139L298.135 80.1049C300.651 73.9586 303.682 68.8345 307.209 64.7058C310.851 60.5015 315.013 57.051 319.697 54.3464C323.44 52.1852 326.759 50.9359 329.67 50.5158C332.513 50.1054 334.961 50.5955 337.098 51.9276C339.219 53.2505 341.128 55.6353 342.734 59.2905L342.738 59.2982L342.741 59.3059C344.332 62.818 345.54 67.638 346.319 73.8281ZM593.403 204.734V203.868L592.653 203.435L568.982 189.769V34.7758V33.9098L568.232 33.4768L560.51 29.0182L559.056 28.179L525.608 8.86743L525.164 8.61108L524.045 7.9655L523.358 7.56839V8.82837L523.241 8.97516L433.403 121.683L433.041 122.137L433.079 122.717L435.152 153.821L435.205 154.62L435.898 155.02L523.358 205.515V258.995V259.861L524.108 260.294L566.732 284.903L568.982 286.202V283.604V231.856L591.153 244.656L593.403 245.955V243.357V204.734ZM522.808 80.1002L523.358 79.3561L523.358 163.428L479.125 137.89L522.798 80.1139L522.803 80.1071L522.808 80.1002Z" fill="#172242" stroke="#555F76" stroke-width="3"/>
<path d="M687 44L564.526 153L536 112.039L687 44Z" fill="#172242"/>
<path d="M455 44L332.526 153L304 112.039L455 44Z" fill="#172242"/>
<path d="M151 44L28.526 153L0 112.039L151 44Z" fill="#172242"/>
</svg>