<svg width="351" height="274" viewBox="0 0 351 274" fill="none" xmlns="http://www.w3.org/2000/svg">
<g opacity="0.2">
<path d="M387.871 130.865L376.958 149.767C367.178 166.706 354.198 181.576 338.758 193.529C323.319 205.481 305.723 214.282 286.974 219.428C268.225 224.574 248.692 225.965 229.489 223.521C210.285 221.077 191.788 214.846 175.054 205.184C158.319 195.523 143.675 182.619 131.957 167.211C120.239 151.802 111.677 134.19 106.759 115.38C101.841 96.5707 100.664 76.9316 103.296 57.5844C105.927 38.2372 112.315 19.5608 122.095 2.62153L133.008 -16.2797L74.2 -50.2324L0.603653 77.2402L112.495 316.44L375.593 293.74L449.189 166.268L387.871 130.865Z" fill="#555F76"/>
<path d="M337.194 123.339C347.206 106.006 351.932 86.1381 350.773 66.2489C349.615 46.3597 342.625 27.3425 330.687 11.6026C318.748 -4.13737 302.399 -15.893 283.705 -22.1776C265.012 -28.4621 244.814 -28.9931 225.667 -23.7036C206.52 -18.4141 189.284 -7.54172 176.139 7.53865C162.993 22.619 154.529 41.2298 151.816 61.0172C149.103 80.8046 152.264 100.88 160.899 118.703C169.534 136.527 183.254 151.299 200.326 161.15C223.209 174.356 250.483 177.791 276.149 170.701C301.815 163.61 323.773 146.574 337.194 123.339ZM209.27 49.4821C214.103 41.1099 221.273 34.337 229.872 30.02C238.471 25.703 248.113 24.0358 257.579 25.229C267.045 26.4223 275.909 30.4226 283.051 36.7239C290.194 43.0252 295.293 51.3446 297.704 60.6301C300.115 69.9155 299.73 79.75 296.598 88.8898C293.465 98.0297 287.726 106.064 280.105 111.978C272.485 117.891 263.326 121.418 253.786 122.112C244.246 122.806 234.754 120.636 226.511 115.877C215.456 109.495 207.43 98.9139 204.196 86.4625C200.963 74.0111 202.788 60.7088 209.27 49.4821Z" fill="#555F76"/>
<path d="M152.493 -49.3703L116.274 -70.2816L139.852 -111.12L266.033 -149.712L299.527 -130.374L327.293 -178.466L363.513 -157.555L314.624 -72.8779L260.566 -104.089L167.696 -75.7015L152.493 -49.3703Z" fill="#555F76"/>
<path d="M443.436 118.606L407.216 97.6942L422.419 71.363L400.585 -23.2486L346.509 -54.4694L395.397 -139.146L431.617 -118.235L403.851 -70.143L437.345 -50.8052L467.014 77.7674L443.436 118.606Z" fill="#555F76"/>
</g>
</svg>
