<svg xmlns="http://www.w3.org/2000/svg" width="468" height="496" viewBox="0 0 468 496" fill="none">
<g opacity="0.2">
<path d="M387.871 309.865L376.958 328.767C367.178 345.706 354.198 360.576 338.758 372.529C323.319 384.481 305.723 393.282 286.974 398.428C268.225 403.574 248.692 404.965 229.489 402.521C210.285 400.077 191.788 393.846 175.054 384.184C158.319 374.523 143.675 361.619 131.957 346.211C120.239 330.802 111.677 313.19 106.759 294.38C101.841 275.571 100.664 255.932 103.296 236.584C105.927 217.237 112.315 198.561 122.095 181.622L133.008 162.72L74.2 128.768L0.603647 256.24L112.495 495.44L375.593 472.74L449.189 345.268L387.871 309.865Z" fill="#555F76"/>
<path d="M337.194 302.339C347.206 285.006 351.932 265.138 350.773 245.249C349.615 225.36 342.625 206.343 330.687 190.603C318.748 174.863 302.399 163.107 283.705 156.822C265.012 150.538 244.814 150.007 225.667 155.296C206.52 160.586 189.284 171.458 176.139 186.539C162.993 201.619 154.529 220.23 151.816 240.017C149.103 259.805 152.264 279.88 160.899 297.703C169.534 315.527 183.254 330.299 200.326 340.15C223.209 353.356 250.483 356.791 276.149 349.701C301.815 342.61 323.773 325.574 337.194 302.339ZM209.27 228.482C214.103 220.11 221.273 213.337 229.872 209.02C238.471 204.703 248.113 203.036 257.579 204.229C267.045 205.422 275.909 209.423 283.051 215.724C290.194 222.025 295.293 230.345 297.704 239.63C300.115 248.916 299.73 258.75 296.598 267.89C293.465 277.03 287.726 285.064 280.105 290.978C272.485 296.891 263.326 300.418 253.786 301.112C244.246 301.806 234.754 299.636 226.511 294.877C215.456 288.495 207.43 277.914 204.196 265.463C200.963 253.011 202.788 239.709 209.27 228.482Z" fill="#555F76"/>
<path d="M152.493 129.63L116.274 108.718L139.852 67.8802L266.033 29.288L299.527 48.6258L327.293 0.534103L363.513 21.4455L314.624 106.122L260.566 74.9113L167.696 103.298L152.493 129.63Z" fill="#555F76"/>
<path d="M443.436 297.606L407.216 276.694L422.419 250.363L400.585 155.751L346.509 124.531L395.397 39.854L431.617 60.7653L403.851 108.857L437.345 128.195L467.014 256.767L443.436 297.606Z" fill="#555F76"/>
</g>
</svg>