<svg width="24" height="22" viewBox="0 0 24 22" fill="none" xmlns="http://www.w3.org/2000/svg">
<path fill-rule="evenodd" clip-rule="evenodd" d="M9 3C9 1.34315 10.3431 0 12 0C13.6569 0 15 1.34315 15 3V6.5C15 7.05228 14.5523 7.5 14 7.5C13.4477 7.5 13 7.05228 13 6.5V3C13 2.44772 12.5523 2 12 2C11.4477 2 11 2.44772 11 3V13.2467C11 13.795 10.7059 14.252 10.3175 14.5157C9.5203 15.057 9 15.9679 9 17C9 18.6568 10.3431 20 12 20C13.6569 20 15 18.6568 15 17C15 15.8908 14.3986 14.921 13.4993 14.4007C13.0212 14.1242 12.8579 13.5125 13.1344 13.0344C13.4109 12.5563 14.0227 12.393 14.5007 12.6695C15.9926 13.5325 17 15.148 17 17C17 19.7614 14.7614 22 12 22C9.23857 22 7 19.7614 7 17C7 15.3631 7.78733 13.9105 9 12.9997V3Z" fill="white"/>
<path d="M13 10C13 9.4477 13.4477 9 14 9H21C21.5523 9 22 9.4477 22 10C22 10.5523 21.5523 11 21 11H14C13.4477 11 13 10.5523 13 10Z" fill="white"/>
<path d="M2 10C2 9.4477 2.44772 9 3 9H7C7.55228 9 8 9.4477 8 10C8 10.5523 7.55228 11 7 11H3C2.44772 11 2 10.5523 2 10Z" fill="white"/>
<path fill-rule="evenodd" clip-rule="evenodd" d="M21.0397 13.7069C20.6884 14.0977 20.1188 14.0977 19.7674 13.7069C19.4161 13.3162 19.4161 12.6826 19.7674 12.2918L21.828 10L19.7674 7.70816C19.4161 7.3174 19.4161 6.68384 19.7674 6.29307C20.1188 5.90231 20.6884 5.90231 21.0397 6.29308L23.7364 9.2925C24.0877 9.6832 24.0877 10.3168 23.7364 10.7075L21.0397 13.7069Z" fill="white"/>
<path fill-rule="evenodd" clip-rule="evenodd" d="M2.97711 13.7904C3.32122 14.1809 3.87913 14.1809 4.22323 13.7904C4.56734 13.3999 4.56734 12.7667 4.22323 12.3762L2.12727 9.9975L4.14546 7.70711C4.48957 7.31658 4.48957 6.68342 4.14546 6.29289C3.80135 5.90237 3.24344 5.90237 2.89933 6.29289L0.258081 9.2904C-0.0860268 9.6809 -0.0860273 10.3141 0.258081 10.7046L2.97711 13.7904Z" fill="white"/>
<path d="M13 17C13 17.5523 12.5523 18 12 18C11.4477 18 11 17.5523 11 17C11 16.4477 11.4477 16 12 16C12.5523 16 13 16.4477 13 17Z" fill="white"/>
</svg>
