<svg width="44" height="44" viewBox="0 0 44 44" fill="none" xmlns="http://www.w3.org/2000/svg">
<path d="M39.8017 37.1984L33 30.4517C35.6402 27.1598 36.9188 22.9814 36.5728 18.7758C36.2269 14.5701 34.2827 10.6568 31.1401 7.84058C27.9975 5.02433 23.8953 3.51917 19.677 3.6346C15.4587 3.75003 11.445 5.47727 8.4611 8.46116C5.4772 11.4451 3.74996 15.4588 3.63454 19.6771C3.51911 23.8954 5.02427 27.9976 7.84052 31.1402C10.6568 34.2828 14.5701 36.227 18.7757 36.5729C22.9814 36.9188 27.1598 35.6403 30.4517 33.0001L37.1983 39.7467C37.3688 39.9186 37.5715 40.055 37.7949 40.148C38.0184 40.2411 38.258 40.289 38.5 40.289C38.742 40.289 38.9817 40.2411 39.2051 40.148C39.4285 40.055 39.6312 39.9186 39.8017 39.7467C40.1321 39.4049 40.3168 38.948 40.3168 38.4726C40.3168 37.9971 40.1321 37.5403 39.8017 37.1984ZM20.1667 33.0001C17.6285 33.0001 15.1473 32.2474 13.0369 30.8373C10.9264 29.4271 9.28154 27.4228 8.31022 25.0778C7.3389 22.7329 7.08475 20.1525 7.57993 17.6631C8.07511 15.1737 9.29736 12.887 11.0921 11.0922C12.8869 9.29743 15.1736 8.07517 17.663 7.57999C20.1524 7.08481 22.7328 7.33896 25.0778 8.31028C27.4228 9.28161 29.4271 10.9265 30.8372 13.0369C32.2473 15.1473 33 17.6285 33 20.1667C33 23.5703 31.6479 26.8346 29.2412 29.2413C26.8345 31.648 23.5703 33.0001 20.1667 33.0001Z" fill="white"/>
</svg>
