<svg width="1483" height="614" viewBox="0 0 1483 614" fill="none" xmlns="http://www.w3.org/2000/svg">
<path fill-rule="evenodd" clip-rule="evenodd" d="M1.38171e-05 316.098L202.387 614L284.922 557.954L120.612 316.1L297.297 56.0487L214.764 -9.38765e-06L1.38171e-05 316.098ZM239.351 316.098L441.738 614L524.273 557.954L359.964 316.1L536.649 56.0487L454.116 -1.985e-05L239.351 316.098ZM478.703 316.098L681.089 614L763.624 557.954L599.315 316.1L776 56.0487L693.467 -2.61129e-05L478.703 316.098Z" fill="#D7DCE1"/>
<path fill-rule="evenodd" clip-rule="evenodd" d="M707 316.098L909.387 614L991.922 557.954L827.612 316.1L1004.3 56.0487L921.764 -9.38765e-06L707 316.098ZM946.351 316.098L1148.74 614L1231.27 557.954L1066.96 316.1L1243.65 56.0487L1161.12 -1.985e-05L946.351 316.098ZM1185.7 316.098L1388.09 614L1470.62 557.954L1306.31 316.1L1483 56.0487L1400.47 -2.61129e-05L1185.7 316.098Z" fill="#D7DCE1"/>
</svg>
