<svg width="40" height="40" viewBox="0 0 40 40" fill="none" xmlns="http://www.w3.org/2000/svg">
<g clip-path="url(#clip0_1_1410)">
<path fill-rule="evenodd" clip-rule="evenodd" d="M15.0013 6.66663C15.0013 3.90521 17.2398 1.66663 20.0013 1.66663C22.7628 1.66663 25.0013 3.90521 25.0013 6.66663V12.5C25.0013 13.4204 24.2551 14.1666 23.3346 14.1666C22.4141 14.1666 21.668 13.4204 21.668 12.5V6.66663C21.668 5.74616 20.9218 4.99996 20.0013 4.99996C19.0808 4.99996 18.3346 5.74616 18.3346 6.66663V23.7445C18.3346 24.6583 17.8445 25.42 17.1971 25.8595C15.8685 26.7616 15.0013 28.2798 15.0013 30C15.0013 32.7613 17.2398 35 20.0013 35C22.7628 35 25.0013 32.7613 25.0013 30C25.0013 28.1513 23.999 26.535 22.5001 25.6678C21.7033 25.207 21.4311 24.1875 21.892 23.3906C22.3528 22.5938 23.3725 22.3216 24.1691 22.7825C26.6556 24.2208 28.3346 26.9133 28.3346 30C28.3346 34.6023 24.6036 38.3333 20.0013 38.3333C15.3989 38.3333 11.668 34.6023 11.668 30C11.668 27.2718 12.9802 24.8508 15.0013 23.3328V6.66663Z" fill="#2E5599"/>
<path d="M21.668 18.3333C21.668 17.4128 22.4141 16.6666 23.3346 16.6666H35.0013C35.9218 16.6666 36.668 17.4128 36.668 18.3333C36.668 19.2538 35.9218 20 35.0013 20H23.3346C22.4141 20 21.668 19.2538 21.668 18.3333Z" fill="#2E5599"/>
<path d="M3.33203 18.3333C3.33203 17.4128 4.07823 16.6666 4.9987 16.6666H11.6654C12.5858 16.6666 13.332 17.4128 13.332 18.3333C13.332 19.2538 12.5858 20 11.6654 20H4.9987C4.07823 20 3.33203 19.2538 3.33203 18.3333Z" fill="#2E5599"/>
<path fill-rule="evenodd" clip-rule="evenodd" d="M35.0674 24.5115C34.4819 25.1628 33.5326 25.1628 32.9469 24.5115C32.3614 23.8603 32.3614 22.8043 32.9469 22.153L36.3813 18.3333L32.9469 14.5136C32.3614 13.8623 32.3614 12.8064 32.9469 12.1551C33.5326 11.5038 34.4819 11.5038 35.0674 12.1551L39.5619 17.1541C40.1474 17.8053 40.1474 18.8613 39.5619 19.5125L35.0674 24.5115Z" fill="#2E5599"/>
<path fill-rule="evenodd" clip-rule="evenodd" d="M4.96185 24.6506C5.53537 25.3015 6.46522 25.3015 7.03872 24.6506C7.61223 23.9998 7.61223 22.9445 7.03872 22.2936L3.54545 18.3291L6.9091 14.5118C7.48262 13.8609 7.48262 12.8057 6.9091 12.1548C6.33558 11.5039 5.40573 11.5039 4.83222 12.1548L0.430135 17.1506C-0.143378 17.8015 -0.143379 18.8568 0.430135 19.5076L4.96185 24.6506Z" fill="#2E5599"/>
<path d="M21.6654 29.9999C21.6654 30.9204 20.9192 31.6666 19.9987 31.6666C19.0782 31.6666 18.332 30.9204 18.332 29.9999C18.332 29.0794 19.0782 28.3333 19.9987 28.3333C20.9192 28.3333 21.6654 29.0794 21.6654 29.9999Z" fill="#2E5599"/>
</g>
<defs>
<clipPath id="clip0_1_1410">
<rect width="40" height="40" fill="white"/>
</clipPath>
</defs>
</svg>
