<svg width="181" height="32" viewBox="0 0 181 32" fill="none" xmlns="http://www.w3.org/2000/svg">
<path d="M71.3875 24.862C71.3954 24.881 71.3986 24.9017 71.3967 24.9223C71.3949 24.9429 71.3881 24.9627 71.377 24.9799C71.3659 24.9971 71.3508 25.0112 71.333 25.0208C71.3153 25.0305 71.2955 25.0355 71.2755 25.0353H69.8404C69.5103 25.0435 69.1854 24.9491 68.908 24.7645C68.6306 24.5798 68.4134 24.3133 68.2847 23.9997L67.022 20.9908H60.5362C60.503 20.9909 60.4703 20.9824 60.4411 20.9661C60.4119 20.9497 60.3872 20.9261 60.3692 20.8974C60.3512 20.8686 60.3404 20.8356 60.338 20.8015C60.3355 20.7674 60.3414 20.7331 60.3552 20.702L60.9197 19.3064C60.9912 19.0506 61.1459 18.8279 61.3578 18.6757C61.5696 18.5236 61.8258 18.4512 62.0833 18.4708H65.9618L62.7254 10.7953C62.5727 10.5074 62.4899 10.1856 62.4841 9.85751H62.4453C62.4465 10.1849 62.3679 10.5073 62.2169 10.7953L56.6447 23.9997C56.518 24.3108 56.3026 24.5748 56.027 24.7566C55.7515 24.9384 55.4288 25.0294 55.1018 25.0175H53.6668C53.6471 25.017 53.6278 25.0115 53.6107 25.0015C53.5935 24.9915 53.579 24.9774 53.5684 24.9603C53.5578 24.9432 53.5514 24.9237 53.5497 24.9034C53.5481 24.8832 53.5513 24.8628 53.559 24.8442L61.342 6.46639C61.3501 6.44379 61.3648 6.42435 61.3842 6.41081C61.4035 6.39726 61.4264 6.39028 61.4498 6.39084H63.4925C63.5163 6.39062 63.5397 6.39768 63.5596 6.41112C63.5795 6.42457 63.5952 6.4438 63.6045 6.46639L71.3875 24.862ZM84.5187 25.0353H82.3122C82.2965 25.0353 82.281 25.0321 82.2666 25.0257C82.2522 25.0194 82.2392 25.0102 82.2283 24.9986C82.2175 24.987 82.209 24.9732 82.2034 24.9581C82.1978 24.9431 82.1952 24.927 82.1958 24.9108V14.0842H78.3474L77.4381 21.4264C76.9167 23.982 76.3607 25.1642 74.262 25.1642C73.7665 25.1761 73.2718 25.1162 72.7924 24.9864V24.0975C72.7924 23.2531 73.1372 22.8353 73.4906 22.8264H73.9215C74.4387 22.8042 74.6843 22.4353 75.0075 21.2575L76.2788 12.6219C76.3265 12.38 76.4538 12.1624 76.6391 12.0061C76.8245 11.8498 77.0565 11.7643 77.2959 11.7642H84.51C84.5417 11.7653 84.5718 11.7787 84.5942 11.8018C84.6166 11.825 84.6296 11.856 84.6307 11.8886V24.9108C84.6308 24.9424 84.6193 24.9727 84.5985 24.9958C84.5777 25.0189 84.5491 25.033 84.5187 25.0353ZM90.0047 12.5908V16.5908H93.3446C95.9303 16.5908 97.8437 18.3375 97.8437 20.8042C97.8437 23.2708 95.9087 25.0397 93.3446 25.0397H87.6862C87.6703 25.0397 87.6546 25.0365 87.64 25.0303C87.6253 25.024 87.612 25.0148 87.6008 25.0033C87.5896 24.9917 87.5807 24.978 87.5747 24.9629C87.5686 24.9478 87.5655 24.9316 87.5655 24.9153V11.8886C87.5666 11.856 87.5796 11.825 87.602 11.8018C87.6244 11.7787 87.6545 11.7653 87.6862 11.7642H89.2074C89.3119 11.7636 89.4155 11.7843 89.5122 11.8251C89.6089 11.866 89.6968 11.9261 89.7709 12.0021C89.845 12.0781 89.9038 12.1685 89.9439 12.268C89.984 12.3675 90.0047 12.4742 90.0047 12.5819V12.5908ZM90.0047 22.6042H93.1894C94.4823 22.6042 95.4045 22.0708 95.4045 20.8264C95.4045 19.582 94.5081 18.9864 93.1894 18.9864H90.0047V22.6042ZM108.001 25.2397V28.6975C108.001 28.9486 107.905 29.1894 107.732 29.3669C107.56 29.5444 107.327 29.6442 107.083 29.6442H105.683C105.651 29.6442 105.62 29.6311 105.597 29.6077C105.575 29.5844 105.562 29.5527 105.562 29.5197V25.2175C102.114 24.8397 99.7097 22.1064 99.7097 18.4131C99.7097 14.7197 102.11 11.9731 105.584 11.5953V6.66639C105.585 6.41568 105.682 6.17557 105.854 5.99829C106.026 5.82101 106.258 5.7209 106.502 5.71973H107.906C107.938 5.72088 107.967 5.7345 107.989 5.75771C108.011 5.78092 108.023 5.81192 108.023 5.84417V11.5819C111.47 11.9731 113.875 14.6931 113.875 18.4131C113.875 22.1331 111.453 24.8397 108.001 25.2308V25.2397ZM105.584 22.6664V14.1375C104.601 14.2905 103.707 14.8105 103.071 15.5988C102.435 16.387 102.103 17.3885 102.136 18.4131C102.105 19.4346 102.439 20.4322 103.075 21.2164C103.711 22.0005 104.603 22.5165 105.584 22.6664ZM111.436 18.4042C111.476 17.3834 111.15 16.3832 110.521 15.5946C109.891 14.8059 109.002 14.284 108.023 14.1286V22.6664C108.995 22.5092 109.878 21.9892 110.503 21.2051C111.128 20.421 111.453 19.4275 111.414 18.4131L111.436 18.4042ZM142.861 11.7908C142.881 11.7907 142.901 11.7956 142.919 11.8053C142.936 11.815 142.951 11.829 142.962 11.8462C142.974 11.8635 142.98 11.8832 142.982 11.9038C142.984 11.9244 142.981 11.9452 142.973 11.9642L137.422 25.0664L135.858 28.7597C135.731 29.073 135.513 29.3385 135.235 29.5205C134.957 29.7024 134.631 29.7921 134.302 29.7775H132.958C132.938 29.777 132.919 29.7715 132.902 29.7615C132.884 29.7515 132.87 29.7374 132.859 29.7203C132.849 29.7032 132.842 29.6837 132.841 29.6634C132.839 29.6432 132.842 29.6228 132.85 29.6042L135.074 24.5908L129.76 11.9731C129.752 11.954 129.749 11.9333 129.751 11.9127C129.753 11.8921 129.759 11.8723 129.771 11.8551C129.782 11.8379 129.797 11.8239 129.815 11.8142C129.832 11.8045 129.852 11.7995 129.872 11.7997H131.23C131.559 11.7822 131.885 11.8702 132.163 12.0516C132.442 12.2331 132.659 12.4991 132.785 12.8131L136.086 21.2575C136.213 21.723 136.186 22.2187 136.009 22.6664H136.048C136.23 22.2901 136.389 21.9027 136.526 21.5064L139.926 12.8353C140.054 12.5228 140.272 12.2583 140.55 12.0772C140.828 11.896 141.153 11.807 141.482 11.8219L142.861 11.7908ZM143.451 18.3908C143.451 14.3908 146.244 11.5197 150.153 11.5197C151.601 11.5197 153.6 12.1464 154.678 13.3375C154.693 13.3602 154.702 13.3874 154.702 13.4153C154.702 13.4432 154.693 13.4704 154.678 13.4931L154.186 14.2708C153.99 14.5761 153.686 14.7896 153.338 14.8653C152.991 14.941 152.628 14.8727 152.329 14.6753C151.66 14.2876 150.911 14.0684 150.144 14.0353C149.581 14.0111 149.02 14.107 148.495 14.3168C147.97 14.5266 147.492 14.8459 147.092 15.2547C146.692 15.6635 146.378 16.153 146.17 16.6926C145.962 17.2322 145.864 17.8104 145.882 18.3908C145.866 18.9702 145.965 19.5469 146.174 20.0849C146.383 20.623 146.697 21.1109 147.097 21.5182C147.497 21.9256 147.974 22.2436 148.498 22.4526C149.022 22.6617 149.583 22.7571 150.144 22.7331C150.918 22.6974 151.672 22.4686 152.342 22.0664C152.642 21.8712 153.003 21.8043 153.35 21.8798C153.697 21.9554 154.002 22.1674 154.199 22.4708L154.691 23.2353C154.707 23.2577 154.716 23.285 154.716 23.3131C154.716 23.3411 154.707 23.3685 154.691 23.3908C153.462 24.5801 151.842 25.2441 150.157 25.2486C146.222 25.2575 143.43 22.3908 143.43 18.3997L143.451 18.3908ZM128.984 18.0131C128.984 14.1019 126.325 11.5331 122.662 11.5331C118.844 11.5331 116.09 14.4131 116.09 18.4042C116.09 22.3953 118.883 25.262 122.787 25.262C124.451 25.264 126.051 24.6087 127.261 23.4308C127.279 23.4077 127.289 23.3786 127.289 23.3486C127.289 23.3186 127.279 23.2895 127.261 23.2664L126.7 22.4264C126.488 22.1565 126.187 21.976 125.854 21.9187C125.522 21.8614 125.181 21.9313 124.895 22.1153C124.267 22.5391 123.533 22.7661 122.783 22.7686C121.923 22.7995 121.074 22.5613 120.348 22.0854C119.622 21.6094 119.053 20.918 118.715 20.102L118.689 20.0264C118.654 19.9286 118.62 19.8264 118.59 19.7242C118.56 19.622 118.555 19.6042 118.542 19.542L118.516 19.4264C118.389 18.8121 118.378 18.178 118.486 17.5597C118.528 17.319 118.59 17.0826 118.672 16.8531V16.8042C118.974 15.9764 119.52 15.2666 120.232 14.7735C120.944 14.2803 121.788 14.0285 122.645 14.0531C124.593 14.0531 126.157 15.1908 126.549 17.0931H122.197C121.956 17.0702 121.715 17.1338 121.515 17.2731C121.315 17.4125 121.167 17.6189 121.098 17.8575L120.581 19.1331C120.569 19.1644 120.565 19.1983 120.568 19.2317C120.572 19.2652 120.583 19.2972 120.601 19.3251C120.62 19.3531 120.644 19.3761 120.673 19.3921C120.701 19.4082 120.733 19.4169 120.766 19.4175H127.696C127.87 19.4192 128.043 19.3836 128.203 19.3129C128.363 19.2422 128.507 19.138 128.627 19.0068C128.746 18.8756 128.837 18.7203 128.895 18.5508C128.953 18.3812 128.976 18.2012 128.963 18.022L128.984 18.0131Z" fill="#0B2330"/>
<path opacity="0.2" d="M44.177 0.666558C44.177 0.543828 44.0806 0.444336 43.9616 0.444336C43.8426 0.444336 43.7461 0.543828 43.7461 0.666558V31.3332C43.7461 31.456 43.8426 31.5554 43.9616 31.5554C44.0806 31.5554 44.177 31.456 44.177 31.3332V0.666558Z" fill="black"/>
<path d="M29.1928 16.0266C29.186 16.0063 29.1858 15.9843 29.1923 15.964C29.1988 15.9436 29.2116 15.926 29.2288 15.9139C29.2459 15.9018 29.2664 15.8958 29.2872 15.8969C29.3079 15.898 29.3278 15.906 29.3436 15.9199C34.0841 21.2888 33.7825 24.8088 33.1231 26.2132C31.2743 30.1554 24.5041 31.0621 17.0831 31.4399C9.66205 31.8177 2.27984 31.4177 0.681005 27.5554C-0.383447 24.7954 2.12901 18.5999 5.01208 13.5377C7.89515 8.47545 12.5322 0.444336 16.3375 0.444336C20.0221 0.444336 23.3879 6.87989 25.5599 12.0666C27.4044 16.0666 29.0937 21.1377 27.6716 23.351C26.6717 24.991 21.8666 26.1066 16.8245 26.1066C14.6956 26.2177 8.56312 26.1066 7.41248 24.271C6.35234 22.5732 8.37351 18.0488 9.60172 15.8666C10.8299 13.6843 14.3422 7.33322 16.4711 7.33322C18.6 7.33322 20.2764 11.9288 20.9185 13.4043C21.5046 14.7377 22.9957 18.9777 22.276 20.2221C21.5563 21.4666 18.7293 21.4488 17.6174 21.5066C16.5056 21.5643 13.8078 21.591 13.1355 20.7777C12.5624 20.0843 12.7821 17.9954 15.4541 14.2088C15.4674 14.1907 15.4868 14.1783 15.5084 14.1739C15.5301 14.1694 15.5525 14.1733 15.5716 14.1848C15.5906 14.1963 15.605 14.2145 15.6119 14.2361C15.6188 14.2577 15.6179 14.2812 15.6092 14.3021C14.8723 16.1732 14.3594 18.271 14.5275 19.191C14.5486 19.294 14.5896 19.3916 14.6481 19.4779C14.7066 19.5642 14.7814 19.6375 14.868 19.6932C15.342 20.0132 16.4711 20.0443 17.5571 19.9866C19.1085 19.9154 20.2031 19.871 20.5738 19.1377C20.9659 18.4843 20.2893 16.0977 19.5309 14.151C19.2551 13.4532 17.8631 9.57323 16.4797 9.57323C15.23 9.57323 12.2952 14.4621 11.3471 16.5377C10.511 18.3821 9.01131 21.4266 9.98527 22.7199C10.9506 23.911 14.8852 23.9421 16.7254 23.8488C19.2507 23.7154 22.8707 23.6754 24.6937 22.2977C25.0225 22.0686 25.2622 21.727 25.3703 21.3332C25.8012 19.5554 24.3963 15.5154 23.2155 12.7154C22.1467 10.0488 19.1301 3.20434 16.3203 3.20434C13.5105 3.20434 8.26146 12.7554 7.06341 15.1332C6.03343 17.2177 3.51236 22.4266 3.77955 25.2799C3.82452 25.6475 3.94504 26.001 4.13306 26.3168C4.32108 26.6326 4.57228 26.9033 4.86986 27.111C7.24872 28.8443 12.3857 29.1021 16.9581 28.8888C22.1295 28.6221 29.0506 27.8621 30.6063 25.2666C31.6966 23.4399 31.7182 21.4399 29.1928 16.0266Z" fill="#F15F43"/>
</svg>
