<svg width="880" height="4202" viewBox="0 0 880 4202" fill="none" xmlns="http://www.w3.org/2000/svg">
<path fill-rule="evenodd" clip-rule="evenodd" d="M453.04 1019L880 1309.02L799.674 1427.29L453.043 1191.84L80.3304 1445.02L0 1326.76L453.04 1019ZM453.04 1361.99L880 1652.01L799.674 1770.28L453.043 1534.82L80.3304 1788.01L0 1669.74L453.04 1361.99ZM453.04 1704.98L880 1994.99L799.674 2113.27L453.043 1877.81L80.3304 2131L6.01879e-06 2012.73L453.04 1704.98Z" fill="#D7DCE1"/>
<path fill-rule="evenodd" clip-rule="evenodd" d="M453.04 3090L880 3380.02L799.674 3498.29L453.043 3262.84L80.3304 3516.02L0 3397.76L453.04 3090ZM453.04 3432.99L880 3723.01L799.674 3841.28L453.043 3605.82L80.3304 3859.01L0 3740.74L453.04 3432.99ZM453.04 3775.98L880 4065.99L799.674 4184.27L453.043 3948.81L80.3304 4202L6.01879e-06 4083.73L453.04 3775.98Z" fill="#D7DCE1"/>
<path fill-rule="evenodd" clip-rule="evenodd" d="M453.04 0L880 290.018L799.674 408.29L453.043 172.836L80.3304 426.024L0 307.755L453.04 0ZM453.04 342.988L880 633.006L799.674 751.278L453.043 515.824L80.3304 769.012L0 650.743L453.04 342.988ZM453.04 685.976L880 975.994L799.674 1094.27L453.043 858.812L80.3304 1112L6.01879e-06 993.731L453.04 685.976Z" fill="#D7DCE1"/>
<path fill-rule="evenodd" clip-rule="evenodd" d="M453.04 2071L880 2361.02L799.674 2479.29L453.043 2243.84L80.3304 2497.02L0 2378.76L453.04 2071ZM453.04 2413.99L880 2704.01L799.674 2822.28L453.043 2586.82L80.3304 2840.01L0 2721.74L453.04 2413.99ZM453.04 2756.98L880 3046.99L799.674 3165.27L453.043 2929.81L80.3304 3183L6.01879e-06 3064.73L453.04 2756.98Z" fill="#D7DCE1"/>
</svg>
