<svg width="40" height="40" viewBox="0 0 40 40" fill="none" xmlns="http://www.w3.org/2000/svg">
<path d="M18.332 6.66667C18.332 5.7462 19.0782 5 19.9987 5C20.9192 5 21.6654 5.7462 21.6654 6.66667V25H18.332V6.66667Z" fill="#2E5599"/>
<path d="M6.66797 33.3332C6.66797 32.4127 7.41417 31.6665 8.33464 31.6665H31.668C32.5885 31.6665 33.3346 32.4127 33.3346 33.3332C33.3346 34.2537 32.5885 34.9998 31.668 34.9998H8.33464C7.41417 34.9998 6.66797 34.2537 6.66797 33.3332Z" fill="#2E5599"/>
<path fill-rule="evenodd" clip-rule="evenodd" d="M10.4882 19.5293C9.83728 18.8784 9.83728 17.8231 10.4882 17.1723C11.139 16.5213 12.1943 16.5213 12.8452 17.1723L20.0002 24.3273L27.1552 17.1723C27.806 16.5213 28.8613 16.5213 29.5122 17.1723C30.163 17.8231 30.163 18.8784 29.5122 19.5293L21.1787 27.8628C20.5278 28.5136 19.4725 28.5136 18.8217 27.8628L10.4882 19.5293Z" fill="#2E5599"/>
</svg>
