<svg width="100%" viewBox="0 0 30 30" fill="none" xmlns="http://www.w3.org/2000/svg">
<rect width="30" height="30" rx="15" fill="#2E5599"/>
<path d="M18.666 8.00031H10.666C10.1356 8.00031 9.62687 8.21102 9.2518 8.58609C8.87673 8.96116 8.66602 9.46987 8.66602 10.0003V17.3336C8.66602 17.8641 8.87673 18.3728 9.2518 18.7479C9.62687 19.1229 10.1356 19.3336 10.666 19.3336H12.3927L14.1927 21.1403C14.255 21.2021 14.3289 21.251 14.4101 21.2842C14.4913 21.3173 14.5783 21.3341 14.666 21.3336C14.8249 21.3337 14.9786 21.2769 15.0993 21.1736L17.246 19.3336H18.666C19.1964 19.3336 19.7052 19.1229 20.0802 18.7479C20.4553 18.3728 20.666 17.8641 20.666 17.3336V10.0003C20.666 9.46987 20.4553 8.96116 20.0802 8.58609C19.7052 8.21102 19.1964 8.00031 18.666 8.00031ZM19.3327 17.3336C19.3327 17.5105 19.2624 17.68 19.1374 17.805C19.0124 17.9301 18.8428 18.0003 18.666 18.0003H16.9993C16.8405 18.0003 16.6868 18.057 16.566 18.1603L14.6993 19.7603L13.1393 18.1936C13.0771 18.1319 13.0032 18.083 12.922 18.0498C12.8407 18.0166 12.7538 17.9998 12.666 18.0003H10.666C10.4892 18.0003 10.3196 17.9301 10.1946 17.805C10.0696 17.68 9.99935 17.5105 9.99935 17.3336V10.0003C9.99935 9.82349 10.0696 9.65393 10.1946 9.5289C10.3196 9.40388 10.4892 9.33364 10.666 9.33364H18.666C18.8428 9.33364 19.0124 9.40388 19.1374 9.5289C19.2624 9.65393 19.3327 9.82349 19.3327 10.0003V17.3336Z" fill="white"/>
</svg>
