<svg width="171" height="50" viewBox="0 0 171 50" fill="none" xmlns="http://www.w3.org/2000/svg">
<g clip-path="url(#clip0_3594_6902)">
<path d="M34.0695 22.2578V24.2914C34.0695 31.9406 27.8784 38.1347 20.2328 38.1347C12.5872 38.1347 6.39618 31.9406 6.39618 24.2914V22.2578H0V35.9332L20.3634 50.0003L40.7267 35.9518V22.2765H34.0695V22.2578Z" fill="#E0ECF1"/>
<path d="M29.6877 23.992C29.6877 18.7868 25.4733 14.5703 20.2706 14.5703C15.0679 14.5703 10.8535 18.7868 10.8535 23.992C10.8535 29.1973 15.0679 33.4137 20.2706 33.4137C25.4733 33.4137 29.6877 29.1973 29.6877 23.992ZM15.7392 23.992C15.7392 21.492 17.7718 19.4584 20.2706 19.4584C22.7694 19.4584 24.802 21.492 24.802 23.992C24.802 26.492 22.7694 28.5256 20.2706 28.5256C17.7718 28.5443 15.7392 26.5107 15.7392 23.992Z" fill="#E0ECF1"/>
<path d="M6.41408 18.5828H2.49805V14.1984L10.9455 5.22455H14.5632V0.0566406H18.4978V9.16112H12.6424L6.41408 15.7469V18.5828Z" fill="#E0ECF1"/>
<path d="M37.9666 18.5828H34.0319V15.7469L27.8222 9.16112H21.9668V0.0566406H25.8828V5.22455H29.5191L37.9666 14.1984V18.5828Z" fill="#E0ECF1"/>
<path d="M53.3887 40.0186V35.373H56.6893V36.1566H54.2465V37.2574H56.5029V38.0036H54.2465V39.2536H56.8572V40.0372H53.3887V40.0186Z" fill="#E0ECF1"/>
<path d="M60.979 40.0186L58.9464 36.7536C58.9464 36.7536 59.0023 39.9253 59.0023 40.0186H58.1445V35.373H58.9277L60.9976 38.6566C60.9976 38.6566 60.9044 35.485 60.8858 35.373H61.7436V40.0186H60.979Z" fill="#E0ECF1"/>
<path d="M66.3669 40.0183V39.6265C65.994 39.981 65.6024 40.1489 65.0802 40.1489C63.9614 40.1489 62.8984 39.328 62.8984 37.7422C62.8984 36.6414 63.5698 35.2422 65.1548 35.2422C66.1431 35.2422 66.8331 35.8765 67.1128 36.6228L66.2737 36.9586C66.1991 36.7347 65.9567 36.0444 65.1362 36.0444C64.353 36.0444 63.8308 36.6974 63.8308 37.7235C63.8308 37.9288 63.8681 39.328 65.1548 39.328C65.7702 39.328 66.2177 38.9735 66.2923 38.2459H65.1362V37.481H67.0942V40.0183H66.3669Z" fill="#E0ECF1"/>
<path d="M68.6797 40.0186V35.373H69.5379V40.0186H68.6797Z" fill="#E0ECF1"/>
<path d="M74.0493 40.0186L72.0167 36.7536C72.0167 36.7536 72.0726 39.9253 72.0726 40.0186H71.2148V35.373H71.9981L74.068 38.6566C74.068 38.6566 73.9747 35.485 73.9561 35.373H74.8139V40.0186H74.0493Z" fill="#E0ECF1"/>
<path d="M76.4551 40.0186V35.373H79.7557V36.1566H77.3129V37.2574H79.5506V38.0036H77.3129V39.2536H79.9236V40.0372H76.4551V40.0186Z" fill="#E0ECF1"/>
<path d="M81.1738 40.0186V35.373H84.4745V36.1566H82.0316V37.2574H84.2694V38.0036H82.0316V39.2536H84.6423V40.0372H81.1738V40.0186Z" fill="#E0ECF1"/>
<path d="M87.8318 35.3535C88.7455 35.3535 89.3609 35.9505 89.3609 36.8274C89.3609 37.2752 89.1744 37.8535 88.4471 38.1147L89.4728 40.0177H88.4844L87.5707 38.2826H86.7875V40.0177H85.9297V35.3722H87.8318V35.3535ZM86.7875 37.555H87.4588C88.0928 37.555 88.4844 37.3684 88.4844 36.8274C88.4844 36.3237 88.1488 36.0998 87.5893 36.0998H86.8061V37.555H86.7875Z" fill="#E0ECF1"/>
<path d="M90.7773 40.0186V35.373H91.6356V40.0186H90.7773Z" fill="#E0ECF1"/>
<path d="M96.147 40.0186L94.1144 36.7536C94.1144 36.7536 94.1703 39.9253 94.1703 40.0186H93.3125V35.373H94.0957L96.1656 38.6566C96.1656 38.6566 96.0724 35.485 96.0537 35.373H96.9115V40.0186H96.147Z" fill="#E0ECF1"/>
<path d="M101.537 40.0183V39.6265C101.164 39.981 100.772 40.1489 100.25 40.1489C99.1313 40.1489 98.0684 39.328 98.0684 37.7422C98.0684 36.6414 98.7397 35.2422 100.325 35.2422C101.313 35.2422 102.003 35.8765 102.283 36.6228L101.444 36.9586C101.369 36.7347 101.127 36.0444 100.306 36.0444C99.5229 36.0444 99.0007 36.6974 99.0007 37.7235C99.0007 37.9288 99.038 39.328 100.325 39.328C100.94 39.328 101.388 38.9735 101.462 38.2459H100.306V37.481H102.264V40.0183H101.537Z" fill="#E0ECF1"/>
<path d="M107.615 35.3535C108.585 35.3535 109.275 35.9505 109.275 36.902C109.275 37.7416 108.79 38.4319 107.578 38.4319H106.683V40.0177H105.807V35.3722H107.615V35.3535ZM106.664 37.7043H107.429C108.044 37.7043 108.361 37.4058 108.361 36.8647C108.361 36.1184 107.746 36.0811 107.336 36.0811H106.664V37.7043Z" fill="#E0ECF1"/>
<path d="M110.395 40.0186V35.373H111.271V39.235H113.117V40.0186H110.395Z" fill="#E0ECF1"/>
<path d="M116.865 40.0186L116.604 39.1044H114.851L114.571 40.0186H113.639L115.205 35.373H116.193L117.778 40.0186H116.865ZM115.727 36.1939L115.075 38.3395H116.361L115.727 36.1939Z" fill="#E0ECF1"/>
<path d="M121.565 40.0186L119.532 36.7536C119.532 36.7536 119.588 39.9253 119.588 40.0186H118.73V35.373H119.514L121.584 38.6566C121.584 38.6566 121.49 35.485 121.472 35.373H122.329V40.0186H121.565Z" fill="#E0ECF1"/>
<path d="M125.463 36.1371V39.999H124.586V36.1371H123.318V35.3535H126.731V36.1371H125.463Z" fill="#E0ECF1"/>
<path d="M123.561 24.9249L123.467 24.8876L123.412 24.9622C122.908 25.6338 122.218 26.0256 121.584 26.0256H114.032C112.838 26.0256 112.223 25.3167 112.036 23.7495H127.607H127.719L127.738 23.6562C127.887 22.9099 127.98 22.1637 127.98 21.5107C127.98 19.5704 127.328 17.8352 126.153 16.6039C124.866 15.2793 123.02 14.5703 120.801 14.5703H113.938C109.407 14.5703 106.703 17.4434 106.703 22.257C106.703 27.0704 109.407 29.9435 113.938 29.9435H121.659C124.474 29.9435 126.582 28.8055 127.738 26.6413L127.812 26.5107L127.682 26.4547L123.561 24.9249ZM112.092 20.3353C112.335 19.0667 112.95 18.4696 114.032 18.4696H120.838C122.05 18.4696 122.852 19.1973 122.927 20.3353H112.092Z" fill="#E0ECF1"/>
<path d="M148.829 14.5898H129.23H129.1V14.7018V18.3958V18.5264H129.23H136.391V29.8137V29.9443H136.521H141.538H141.668V29.8137V18.5264H148.829H148.959V18.3958V14.7018V14.5898H148.829Z" fill="#E0ECF1"/>
<path d="M168.371 16.38C167.103 15.186 165.257 14.5703 162.889 14.5703H156.642C153.826 14.5703 151.719 15.7084 150.563 17.8726L150.488 18.0031L150.637 18.0591L154.684 19.4958L154.796 19.5331L154.852 19.4398C155.169 18.8241 156.008 18.339 156.735 18.339H162.814C164.325 18.339 164.865 19.4025 164.865 20.298V20.5219H156.567C154.497 20.5219 152.912 20.951 151.868 21.7905C150.88 22.5928 150.357 23.7495 150.357 25.2234C150.357 27.3689 151.439 29.9435 156.567 29.9435H160.259C162.217 29.9435 163.765 29.3465 164.865 28.1898V29.8129V29.9435H164.996H170.049H170.18V29.8129V21.0256C170.143 19.104 169.527 17.4994 168.371 16.38ZM164.847 23.7495V24.2346C164.847 25.6525 164.082 26.4547 162.777 26.4547H156.548C155.859 26.4547 155.56 25.7831 155.56 25.1114C155.56 24.4211 155.859 23.7495 156.548 23.7495H164.847Z" fill="#E0ECF1"/>
<path d="M77.7613 14.5898H72.7637V29.9443H77.7613V14.5898Z" fill="#E0ECF1"/>
<path d="M64.577 14.5898L58.8522 26.6234L53.1832 14.5898H46.9922L54.5818 29.9443H62.7682L70.507 14.5898H64.577Z" fill="#E0ECF1"/>
<path d="M104.391 14.5898H99.5423V25.56H99.3931C98.9642 25.56 98.5726 25.3734 98.2929 25.0562L91.1135 16.6607C89.9946 15.3548 88.3909 14.6085 86.6753 14.6085H86.5262H81.6777V29.9629H86.5262V19.0114H86.6753C87.1042 19.0114 87.4958 19.198 87.7756 19.5152L94.9549 27.9107C96.0738 29.2167 97.6775 29.9629 99.3931 29.9629H102.153H104.391V14.5898Z" fill="#E0ECF1"/>
</g>
<defs>
<clipPath id="clip0_3594_6902">
<rect width="171" height="50" fill="white"/>
</clipPath>
</defs>
</svg>
