<svg width="187" height="50" viewBox="0 0 187 50" fill="none" xmlns="http://www.w3.org/2000/svg">
<g clip-path="url(#clip0_514_997)">
<path d="M139.97 23.6529L139.88 23.6188L139.82 23.6966C139.298 24.387 138.591 24.7986 137.936 24.7986H130.181C128.953 24.7986 128.314 24.074 128.126 22.4523H144.224L144.244 22.346C144.4 21.6183 144.482 20.8767 144.489 20.1325C144.489 18.1294 143.82 16.3274 142.605 15.0566C141.287 13.6776 139.39 12.9492 137.113 12.9492H130.096C125.44 12.9492 122.661 15.9177 122.661 20.8912C122.661 25.8646 125.44 28.8331 130.096 28.8331H138.032C140.923 28.8331 143.082 27.6533 144.273 25.4189L144.344 25.2842L144.203 25.2311L139.97 23.6529ZM128.193 18.9109C128.444 17.6002 129.077 16.9894 130.179 16.9894H137.179C138.416 16.9894 139.251 17.7482 139.334 18.9109H128.193Z" fill="#D7DCE1"/>
<path d="M165.546 12.9453H145.406H145.272V13.0781V16.8926V17.0254H145.406H152.768V28.704V28.8368H152.899H158.051H158.183V28.704V17.0254H165.546H165.678V16.8926V13.0781V12.9453H165.546Z" fill="#D7DCE1"/>
<path d="M120.482 12.9453H115.33H115.198V13.0781V18.7894H105.654V13.0781V12.9453H105.522H100.37H100.238V13.0781V28.704V28.8368H100.37H105.522H105.654V28.704V22.5432H115.198V28.704V28.8368H115.33H120.482H120.614V28.704V13.0781V12.9453H120.482Z" fill="#D7DCE1"/>
<path d="M97.2791 12.9551H91.7788C90.9366 12.9525 90.1049 13.1433 89.3469 13.5131C88.589 13.8829 87.9248 14.4218 87.4049 15.089L80.7442 23.5924C80.5603 23.8275 80.3302 24.022 80.0683 24.1636C79.8065 24.3052 79.5184 24.391 79.2222 24.4157V12.9551H73.8066V28.8466H79.2222C81.8047 28.8087 82.8916 27.9987 84.1989 26.3295L90.8577 17.8166C90.9674 17.6765 91.1074 17.5634 91.267 17.4859C91.4266 17.4083 91.6016 17.3684 91.7788 17.369H91.9954V28.8523H97.4128V12.9551H97.2791Z" fill="#D7DCE1"/>
<path d="M67.9576 20.6751C69.9562 20.106 70.9715 18.9319 70.9715 17.1565C70.9715 15.9691 70.5947 15.0169 69.8413 14.3283C68.8429 13.4159 67.1815 12.9531 64.9023 12.9531H51.1797V28.837H64.9305C69.2234 28.837 71.3086 27.4012 71.3086 24.4497C71.3086 22.5055 70.1784 21.2384 67.967 20.6751H67.9576ZM64.5086 19.0912H56.6329V16.8644H64.4973C64.9456 16.8644 65.1792 17.4239 65.1792 17.9778C65.1792 18.5317 64.9663 19.0912 64.4973 19.0912H64.5086ZM65.6011 23.7517C65.6011 24.2904 65.3412 24.8632 64.8589 24.8632H56.6329V22.6079H64.8589C65.3468 22.6079 65.6011 23.177 65.6011 23.746" fill="#D7DCE1"/>
<path d="M185.173 14.8157C183.879 13.5771 181.982 12.9492 179.537 12.9492H173.11C170.219 12.9492 168.06 14.129 166.869 16.3635L166.796 16.5001L166.941 16.5513L171.106 18.0403L171.213 18.0801L171.266 17.9777C171.469 17.6405 171.752 17.3597 172.09 17.161C172.427 16.9622 172.809 16.8517 173.2 16.8396H179.449C180.999 16.8396 181.551 17.9302 181.551 18.8654V19.0968H173.022C170.893 19.0968 169.267 19.5388 168.186 20.4132C167.161 21.2326 166.64 22.439 166.64 23.9564C166.64 26.1795 167.747 28.8293 173.018 28.8293H176.821C178.835 28.8293 180.423 28.2186 181.547 27.0122V28.8293H187V19.6108C187 17.6173 186.367 15.9576 185.171 14.8119L185.173 14.8157ZM181.547 22.4181V22.9227C181.547 24.3832 180.769 25.2216 179.415 25.2216H173.01C172.31 25.2216 171.997 24.5236 171.997 23.835C171.997 23.1465 172.31 22.4181 173.01 22.4181H181.547Z" fill="#D7DCE1"/>
<path d="M33.8892 22.2246V24.2561C33.8892 26.0767 33.5331 27.8795 32.8412 29.5616C32.1493 31.2436 31.1352 32.7719 29.8567 34.0593C28.5782 35.3467 27.0605 36.3679 25.3901 37.0646C23.7197 37.7613 21.9294 38.1199 20.1214 38.1199C18.3134 38.1199 16.5231 37.7613 14.8527 37.0646C13.1823 36.3679 11.6646 35.3467 10.3861 34.0593C9.10767 32.7719 8.09354 31.2436 7.40164 29.5616C6.70975 27.8795 6.35363 26.0767 6.35363 24.2561V22.2246H0V35.9253L20.257 49.9997L40.5141 35.9253V22.2246H33.8892Z" fill="#D7DCE1"/>
<path d="M29.5305 23.9565C29.5309 22.0922 28.9822 20.2696 27.9539 18.7194C26.9255 17.1691 25.4637 15.9607 23.7533 15.2471C22.0429 14.5335 20.1608 14.3467 18.345 14.7103C16.5291 15.0739 14.8612 15.9716 13.552 17.2899C12.2429 18.6082 11.3514 20.2878 10.9903 22.1163C10.6292 23.9448 10.8147 25.84 11.5234 27.5623C12.2321 29.2847 13.4321 30.7567 14.9716 31.7922C16.5111 32.8277 18.321 33.3802 20.1724 33.3798C22.6542 33.3793 25.0342 32.3864 26.789 30.6192C28.5439 28.8521 29.53 26.4555 29.5305 23.9565ZM15.6554 23.9565C15.6554 23.0561 15.9205 22.1759 16.4173 21.4273C16.914 20.6787 17.6201 20.0952 18.4461 19.7506C19.2722 19.4061 20.1812 19.3159 21.0581 19.4916C21.9351 19.6672 22.7406 20.1008 23.3729 20.7375C24.0051 21.3741 24.4357 22.1853 24.6101 23.0683C24.7846 23.9514 24.695 24.8667 24.3529 25.6986C24.0107 26.5304 23.4313 27.2414 22.6878 27.7416C21.9444 28.2418 21.0703 28.5088 20.1762 28.5088C18.9772 28.5088 17.8273 28.0292 16.9795 27.1755C16.1317 26.3217 15.6554 25.1638 15.6554 23.9565Z" fill="#D7DCE1"/>
<path d="M6.37946 18.5414H2.47461V14.1521L10.8758 5.16882H14.4868V0H18.3917V9.10091H12.5636L6.37946 15.7113V18.5414Z" fill="#D7DCE1"/>
<path d="M37.7589 18.5414H33.854V15.7113L27.6718 9.10091H21.8418V0H25.7467V5.16882H29.3577L37.7589 14.1521V18.5414Z" fill="#D7DCE1"/>
<path d="M51.6484 35.6416H52.4076L53.7224 39.1716L55.0428 35.6416H55.8019V39.8411H55.2764V36.3472H55.2651L53.9616 39.8411H53.4888L52.1853 36.3472H52.174V39.8411H51.6484V35.6416Z" fill="#D7DCE1"/>
<path d="M57.9158 35.6416H58.5299L60.1592 39.8431H59.547L59.0912 38.5779H57.3262L56.859 39.8431H56.2939L57.9158 35.6416ZM58.916 38.1075L58.2209 36.1481H58.2078L57.5014 38.1075H58.916Z" fill="#D7DCE1"/>
<path d="M60.6279 35.6416H61.1817V39.3707H62.8469V35.6416H63.4026V39.3707H65.0678V35.6416H65.6216V39.8411H60.6279V35.6416Z" fill="#D7DCE1"/>
<path d="M66.5918 35.6416H67.1475V39.2L69.244 35.6416H69.9447V39.8411H69.3909V36.2713L67.2869 39.8411H66.5918V35.6416Z" fill="#D7DCE1"/>
<path d="M70.915 35.6416H71.4707V37.4474H73.6671V35.6416H74.2228V39.8411H73.6671V37.9178H71.4707V39.8411H70.915V35.6416Z" fill="#D7DCE1"/>
<path d="M76.9556 39.936C76.6554 39.9428 76.3574 39.8819 76.0835 39.7577C75.8426 39.6441 75.6297 39.4783 75.46 39.2721C75.291 39.0653 75.1631 38.8277 75.0833 38.5722C74.915 38.0332 74.915 37.4552 75.0833 36.9163C75.1622 36.6593 75.2902 36.4202 75.46 36.2126C75.6302 36.0064 75.8429 35.84 76.0835 35.7251C76.3585 35.605 76.655 35.543 76.9547 35.543C77.2544 35.543 77.551 35.605 77.8259 35.7251C78.0665 35.84 78.2792 36.0064 78.4494 36.2126C78.6185 36.4208 78.7463 36.6596 78.8261 36.9163C78.992 37.4556 78.992 38.0329 78.8261 38.5722C78.7454 38.8273 78.6176 39.0648 78.4494 39.2721C78.2797 39.4783 78.0668 39.6441 77.8259 39.7577C77.5526 39.8817 77.2553 39.9426 76.9556 39.936ZM76.9556 39.4713C77.1826 39.4777 77.4075 39.4261 77.6093 39.3214C77.7879 39.2263 77.9421 39.0906 78.0595 38.925C78.1775 38.7568 78.2643 38.5685 78.3157 38.3692C78.4262 37.9587 78.4262 37.526 78.3157 37.1154C78.2643 36.9161 78.1775 36.7279 78.0595 36.5597C77.9421 36.3941 77.7879 36.2584 77.6093 36.1632C77.4039 36.0626 77.1784 36.0103 76.95 36.0103C76.7216 36.0103 76.4961 36.0626 76.2907 36.1632C76.1121 36.2584 75.9579 36.3941 75.8405 36.5597C75.7225 36.7279 75.6357 36.9161 75.5843 37.1154C75.4764 37.5263 75.4764 37.9584 75.5843 38.3692C75.6357 38.5685 75.7225 38.7568 75.8405 38.925C75.9579 39.0906 76.1121 39.2263 76.2907 39.3214C76.4932 39.4263 76.7187 39.4778 76.9462 39.4713" fill="#D7DCE1"/>
<path d="M81.4125 39.9355C81.1212 39.9424 80.832 39.8855 80.5648 39.7686C80.3318 39.663 80.1262 39.5046 79.9639 39.3058C79.7987 39.1012 79.6763 38.865 79.6041 38.6115C79.5233 38.3331 79.4833 38.0443 79.4855 37.7542C79.4828 37.4615 79.526 37.1702 79.6136 36.8911C79.6924 36.6346 79.8204 36.3962 79.9903 36.1893C80.158 35.987 80.3684 35.825 80.6063 35.7151C80.8746 35.5948 81.166 35.5359 81.4596 35.5425C81.6693 35.541 81.878 35.5704 82.0793 35.6297C82.2663 35.6853 82.4422 35.7733 82.5992 35.8896C82.7511 36.0051 82.8791 36.1495 82.9759 36.3145C83.0811 36.4963 83.149 36.6976 83.1756 36.9063H82.6274C82.5828 36.6366 82.4346 36.3954 82.2149 36.2348C81.9927 36.0838 81.7294 36.0063 81.4614 36.0129C81.2398 36.0068 81.02 36.055 80.821 36.1533C80.6476 36.244 80.4974 36.3738 80.3821 36.5326C80.2656 36.697 80.1801 36.8815 80.1297 37.077C80.0744 37.2842 80.0465 37.4979 80.0468 37.7124C80.0459 37.9414 80.0738 38.1696 80.1297 38.3915C80.1778 38.5925 80.2634 38.7824 80.3821 38.9511C80.4984 39.1104 80.6499 39.2403 80.8248 39.3304C81.0246 39.4285 81.2449 39.4767 81.4671 39.4708C81.6329 39.4733 81.7975 39.4424 81.9512 39.3797C82.093 39.3232 82.2214 39.2373 82.3279 39.1275C82.4326 39.0181 82.5151 38.8892 82.5709 38.7481C82.6298 38.5931 82.6654 38.43 82.6764 38.2644H83.2302C83.2073 38.7302 83.0149 39.1711 82.6896 39.503C82.3418 39.8107 81.8878 39.9681 81.4257 39.9412" fill="#D7DCE1"/>
<path d="M84.9126 36.112H83.5225V35.6416H86.8585V36.112H85.4664V39.8411H84.9126V36.112Z" fill="#D7DCE1"/>
<path d="M87.376 35.6412H89.205C89.3784 35.6284 89.5525 35.6508 89.7171 35.7068C89.8818 35.7628 90.0337 35.8514 90.1638 35.9674C90.371 36.2269 90.4839 36.5498 90.4839 36.8826C90.4839 37.2155 90.371 37.5384 90.1638 37.7978C90.034 37.9143 89.8821 38.0032 89.7174 38.0593C89.5527 38.1153 89.3784 38.1374 89.205 38.1241H87.9317V39.8426H87.376V35.6412ZM89.0185 37.6537C89.2642 37.6766 89.5097 37.6093 89.7098 37.464C89.8488 37.3075 89.9257 37.1049 89.9257 36.895C89.9257 36.685 89.8488 36.4824 89.7098 36.3259C89.5097 36.1807 89.2642 36.1133 89.0185 36.1362H87.9317V37.6784L89.0185 37.6537Z" fill="#D7DCE1"/>
<path d="M92.9879 39.9359C92.6882 39.9429 92.3908 39.882 92.1176 39.7576C91.8762 39.6441 91.6627 39.4783 91.4922 39.2721C91.3232 39.0653 91.1953 38.8276 91.1155 38.5721C90.9472 38.0332 90.9472 37.4552 91.1155 36.9162C91.1945 36.6592 91.3224 36.4202 91.4922 36.2125C91.6631 36.0062 91.8765 35.8398 92.1176 35.725C92.3923 35.6049 92.6885 35.543 92.9879 35.543C93.2873 35.543 93.5835 35.6049 93.8582 35.725C94.099 35.8404 94.3123 36.0066 94.4835 36.2125C94.652 36.4211 94.7798 36.6599 94.8603 36.9162C95.0261 37.4556 95.0261 38.0328 94.8603 38.5721C94.7789 38.827 94.6512 39.0643 94.4835 39.2721C94.3127 39.4779 94.0993 39.6436 93.8582 39.7576C93.5849 39.8816 93.2875 39.9425 92.9879 39.9359ZM92.9879 39.4712C93.2148 39.4776 93.4397 39.4261 93.6415 39.3214C93.8202 39.2263 93.9743 39.0905 94.0917 38.9249C94.2097 38.7567 94.2965 38.5685 94.3479 38.3692C94.4584 37.9586 94.4584 37.5259 94.3479 37.1154C94.2965 36.9161 94.2097 36.7278 94.0917 36.5596C93.9743 36.394 93.8202 36.2583 93.6415 36.1632C93.4361 36.0625 93.2107 36.0102 92.9822 36.0102C92.7538 36.0102 92.5284 36.0625 92.3229 36.1632C92.1448 36.2583 91.9913 36.3941 91.8746 36.5596C91.7555 36.7274 91.668 36.9157 91.6166 37.1154C91.5086 37.5262 91.5086 37.9583 91.6166 38.3692C91.668 38.5688 91.7555 38.7572 91.8746 38.9249C91.9913 39.0905 92.1448 39.2263 92.3229 39.3214C92.5254 39.4262 92.7509 39.4778 92.9785 39.4712" fill="#D7DCE1"/>
<path d="M95.7188 35.6416H96.2744V39.2L98.371 35.6416H99.0736V39.8411H98.5179V36.2713L96.4138 39.8411H95.7188V35.6416Z" fill="#D7DCE1"/>
<path d="M100.99 36.112H99.5996V35.6416H102.936V36.112H101.544V39.8411H100.99V36.112Z" fill="#D7DCE1"/>
<path d="M103.453 35.6416H106.333V36.112H104.009V37.4474H106.177V37.9178H104.009V39.3707H106.352V39.8411H103.453V35.6416Z" fill="#D7DCE1"/>
<path d="M107.023 39.9019C106.959 39.9014 106.896 39.8963 106.834 39.8867C106.781 39.8799 106.729 39.8652 106.68 39.8431V39.3366C106.757 39.3597 106.838 39.3712 106.919 39.3707C107.006 39.3697 107.092 39.3434 107.165 39.295C107.238 39.2466 107.296 39.1781 107.331 39.0976C107.448 38.8596 107.522 38.6027 107.55 38.3389C107.602 37.9477 107.632 37.5537 107.638 37.1591C107.65 36.7013 107.655 36.1955 107.655 35.6416H110.274V39.8431H109.709V36.112H108.19C108.19 36.4459 108.179 36.7702 108.17 37.087C108.16 37.4037 108.141 37.6996 108.117 37.9804C108.094 38.2404 108.056 38.4988 108.002 38.7543C107.959 38.9649 107.891 39.1694 107.799 39.3632C107.725 39.5197 107.614 39.6558 107.476 39.7596C107.34 39.8569 107.176 39.9068 107.009 39.9019" fill="#D7DCE1"/>
<path d="M111.246 35.6416H111.811V37.3487H113.115C113.458 37.3277 113.796 37.4428 114.057 37.6693C114.27 37.9293 114.386 38.2559 114.386 38.593C114.386 38.9302 114.27 39.2568 114.057 39.5168C113.796 39.7433 113.458 39.8583 113.115 39.8374H111.255L111.246 35.6416ZM112.917 39.3707C113.526 39.3707 113.83 39.114 113.829 38.6006C113.827 38.0872 113.523 37.8267 112.917 37.8192H111.802V39.3707H112.917Z" fill="#D7DCE1"/>
<path d="M115.121 35.6416H115.677V37.4474H117.873V35.6416H118.427V39.8411H117.873V37.9178H115.677V39.8411H115.121V35.6416Z" fill="#D7DCE1"/>
<path d="M121.16 39.9359C120.86 39.9425 120.563 39.8816 120.29 39.7576C120.048 39.6436 119.835 39.4779 119.664 39.2721C119.496 39.0648 119.368 38.8273 119.287 38.5721C119.122 38.0328 119.122 37.4556 119.287 36.9162C119.367 36.6595 119.495 36.4206 119.664 36.2125C119.835 36.0066 120.049 35.8404 120.29 35.725C120.564 35.6049 120.86 35.543 121.16 35.543C121.459 35.543 121.755 35.6049 122.03 35.725C122.271 35.8398 122.485 36.0062 122.655 36.2125C122.825 36.4202 122.953 36.6592 123.032 36.9162C123.201 37.4552 123.201 38.0332 123.032 38.5721C122.952 38.8276 122.824 39.0653 122.655 39.2721C122.485 39.4783 122.272 39.6441 122.03 39.7576C121.757 39.882 121.46 39.9429 121.16 39.9359ZM121.16 39.4712C121.385 39.4763 121.608 39.4248 121.808 39.3214C121.986 39.2257 122.14 39.0901 122.258 38.9249C122.376 38.7567 122.463 38.5685 122.514 38.3692C122.622 37.9583 122.622 37.5262 122.514 37.1154C122.463 36.9161 122.376 36.7278 122.258 36.5596C122.14 36.3945 121.986 36.2589 121.808 36.1632C121.602 36.0625 121.377 36.0102 121.149 36.0102C120.92 36.0102 120.695 36.0625 120.489 36.1632C120.311 36.2583 120.156 36.394 120.039 36.5596C119.921 36.7278 119.834 36.9161 119.783 37.1154C119.672 37.5259 119.672 37.9586 119.783 38.3692C119.834 38.5685 119.921 38.7567 120.039 38.9249C120.156 39.0905 120.311 39.2263 120.489 39.3214C120.691 39.4261 120.916 39.4776 121.143 39.4712" fill="#D7DCE1"/>
<path d="M123.896 35.6416H126.776V36.112H124.451V37.4474H126.617V37.9178H124.451V39.3707H126.793V39.8411H123.896V35.6416Z" fill="#D7DCE1"/>
<path d="M51.6367 42.7012H54.8842V46.9007H54.3285V43.1716H52.1905V46.9007H51.6367V42.7012Z" fill="#D7DCE1"/>
<path d="M55.8545 42.7011H57.6817C57.8551 42.6877 58.0293 42.7097 58.1941 42.7657C58.3588 42.8218 58.5107 42.9108 58.6404 43.0273C58.8489 43.2862 58.9627 43.6093 58.9627 43.9425C58.9627 44.2758 58.8489 44.5989 58.6404 44.8577C58.5104 44.9739 58.3586 45.0627 58.1939 45.1187C58.0292 45.1747 57.855 45.1969 57.6817 45.184H56.4083V46.9082H55.8545V42.7011ZM57.4952 44.7136C57.7414 44.7365 57.9875 44.6691 58.1884 44.5239C58.3266 44.367 58.4029 44.1646 58.4029 43.9549C58.4029 43.7451 58.3266 43.5427 58.1884 43.3858C57.9875 43.2406 57.7414 43.1732 57.4952 43.1961H56.4083V44.7382L57.4952 44.7136Z" fill="#D7DCE1"/>
<path d="M59.6992 42.7012H62.5794V43.1716H60.253V44.5069H62.4211V44.9773H60.253V46.4303H62.5963V46.9007H59.6992V42.7012Z" fill="#D7DCE1"/>
<path d="M62.9219 46.4303H63.3306C63.421 46.262 63.4936 46.0846 63.5473 45.9011C63.6176 45.6724 63.6755 45.44 63.7206 45.205C63.7676 44.9508 63.8072 44.6833 63.8336 44.3988C63.8599 44.1143 63.875 43.8298 63.875 43.5358V42.7012H66.5611V46.4303H67.0226V47.9478H66.4914V46.9083H63.4531V47.9497H62.9219V46.4303ZM66.0073 46.4303V43.1716H64.4119V43.7767C64.4119 44.0365 64.3987 44.2964 64.3742 44.5563C64.3497 44.8161 64.3139 45.0646 64.2687 45.2979C64.2235 45.5312 64.1726 45.7456 64.1161 45.9428C64.0704 46.1099 64.0112 46.273 63.9391 46.4303H66.0073Z" fill="#D7DCE1"/>
<path d="M67.6426 42.7012H70.8919V46.9007H70.3362V43.1716H68.1983V46.9007H67.6426V42.7012Z" fill="#D7DCE1"/>
<path d="M71.8604 42.701H73.6894C73.8628 42.6877 74.037 42.7098 74.2018 42.7658C74.3665 42.8219 74.5183 42.9108 74.6482 43.0273C74.8553 43.2867 74.9683 43.6096 74.9683 43.9425C74.9683 44.2754 74.8553 44.5983 74.6482 44.8577C74.518 44.9737 74.3662 45.0623 74.2015 45.1183C74.0369 45.1744 73.8627 45.1967 73.6894 45.1839H72.416V46.9081H71.8604V42.701ZM73.5029 44.7135C73.7485 44.7365 73.9941 44.6691 74.1942 44.5239C74.3332 44.3674 74.4101 44.1648 74.4101 43.9548C74.4101 43.7448 74.3332 43.5423 74.1942 43.3858C73.9941 43.2405 73.7485 43.1731 73.5029 43.1961H72.416V44.7382L73.5029 44.7135Z" fill="#D7DCE1"/>
<path d="M75.7051 42.7012H76.2608V46.2596L78.3573 42.7012H79.058V46.9007H78.5042V43.329L76.4002 46.9007H75.7051V42.7012Z" fill="#D7DCE1"/>
<path d="M80.9323 45.1362C80.6556 45.1006 80.4009 44.9659 80.2146 44.7569C80.0177 44.521 79.9173 44.2186 79.9339 43.9109C79.9219 43.7432 79.9469 43.575 80.0072 43.4182C80.0674 43.2614 80.1614 43.12 80.2824 43.0042C80.5565 42.7866 80.9003 42.6779 81.2487 42.6988H83.0363V46.9079H82.4863V45.178H81.5577L80.2617 46.9079H79.5723L80.9323 45.1362ZM82.4863 44.7V43.1711H81.4352C81.1892 43.1558 80.9444 43.2174 80.7345 43.3475C80.6495 43.414 80.5825 43.501 80.5397 43.6005C80.4969 43.6999 80.4797 43.8086 80.4896 43.9166C80.4824 44.0266 80.5005 44.1369 80.5423 44.2388C80.5841 44.3408 80.6485 44.4317 80.7307 44.5046C80.9359 44.6504 81.1846 44.7207 81.4352 44.7038L82.4863 44.7Z" fill="#D7DCE1"/>
<path d="M84.9536 43.1716H83.5635V42.7012H86.8976V43.1716H85.5074V46.9007H84.9536V43.1716Z" fill="#D7DCE1"/>
<path d="M87.418 42.7012H87.9737V46.2596L90.0721 42.7012H90.7728V46.9007H90.2171V43.329L88.1149 46.9007H87.418V42.7012Z" fill="#D7DCE1"/>
<path d="M91.7402 42.7012H94.6204V43.1716H92.2959V44.5069H94.464V44.9773H92.2959V46.4303H94.6392V46.9007H91.7402V42.7012Z" fill="#D7DCE1"/>
</g>
<defs>
<clipPath id="clip0_514_997">
<rect width="187" height="50" fill="white"/>
</clipPath>
</defs>
</svg>
