<svg width="917" height="268" viewBox="0 0 917 268" fill="none" xmlns="http://www.w3.org/2000/svg">
<path d="M182.7 119.3V130.2C182.7 171.2 149.5 204.4 108.5 204.4C67.5 204.4 34.3 171.2 34.3 130.2V119.3H0V192.6L109.2 268L218.4 192.7V119.4H182.7V119.3Z" fill="#E0ECF1"/>
<path d="M159.199 128.6C159.199 100.7 136.599 78.0996 108.699 78.0996C80.7992 78.0996 58.1992 100.7 58.1992 128.6C58.1992 156.5 80.7992 179.1 108.699 179.1C136.599 179.1 159.199 156.5 159.199 128.6ZM84.3992 128.6C84.3992 115.2 95.2992 104.3 108.699 104.3C122.099 104.3 132.999 115.2 132.999 128.6C132.999 142 122.099 152.9 108.699 152.9C95.2992 153 84.3992 142.1 84.3992 128.6Z" fill="#E0ECF1"/>
<path d="M34.4004 99.5998H13.4004V76.0998L58.7004 27.9998H78.1004V0.299805H99.2004V49.0998H67.8004L34.4004 84.3998V99.5998Z" fill="#E0ECF1"/>
<path d="M203.601 99.5998H182.501V84.3998L149.201 49.0998H117.801V0.299805H138.801V27.9998H158.301L203.601 76.0998V99.5998Z" fill="#E0ECF1"/>
<path d="M286.301 214.501V189.601H304.001V193.801H290.901V199.701H303.001V203.701H290.901V210.401H304.901V214.601H286.301V214.501Z" fill="#E0ECF1"/>
<path d="M327.001 214.501L316.101 197.001C316.101 197.001 316.401 214.001 316.401 214.501H311.801V189.601H316.001L327.101 207.201C327.101 207.201 326.601 190.201 326.501 189.601H331.101V214.501H327.001Z" fill="#E0ECF1"/>
<path d="M355.901 214.5V212.4C353.901 214.3 351.801 215.2 349.001 215.2C343.001 215.2 337.301 210.8 337.301 202.3C337.301 196.4 340.901 188.9 349.401 188.9C354.701 188.9 358.401 192.3 359.901 196.3L355.401 198.1C355.001 196.9 353.701 193.2 349.301 193.2C345.101 193.2 342.301 196.7 342.301 202.2C342.301 203.3 342.501 210.8 349.401 210.8C352.701 210.8 355.101 208.9 355.501 205H349.301V200.9H359.801V214.5H355.901Z" fill="#E0ECF1"/>
<path d="M368.301 214.501V189.601H372.901V214.501H368.301Z" fill="#E0ECF1"/>
<path d="M397.1 214.501L386.2 197.001C386.2 197.001 386.5 214.001 386.5 214.501H381.9V189.601H386.1L397.2 207.201C397.2 207.201 396.7 190.201 396.6 189.601H401.2V214.501H397.1Z" fill="#E0ECF1"/>
<path d="M410 214.501V189.601H427.7V193.801H414.6V199.701H426.6V203.701H414.6V210.401H428.6V214.601H410V214.501Z" fill="#E0ECF1"/>
<path d="M435.301 214.501V189.601H453.001V193.801H439.901V199.701H451.901V203.701H439.901V210.401H453.901V214.601H435.301V214.501Z" fill="#E0ECF1"/>
<path d="M471.001 189.5C475.901 189.5 479.201 192.7 479.201 197.4C479.201 199.8 478.201 202.9 474.301 204.3L479.801 214.5H474.501L469.601 205.2H465.401V214.5H460.801V189.6H471.001V189.5ZM465.401 201.3H469.001C472.401 201.3 474.501 200.3 474.501 197.4C474.501 194.7 472.701 193.5 469.701 193.5H465.501V201.3H465.401Z" fill="#E0ECF1"/>
<path d="M486.801 214.501V189.601H491.401V214.501H486.801Z" fill="#E0ECF1"/>
<path d="M515.6 214.501L504.7 197.001C504.7 197.001 505 214.001 505 214.501H500.4V189.601H504.6L515.7 207.201C515.7 207.201 515.2 190.201 515.1 189.601H519.7V214.501H515.6Z" fill="#E0ECF1"/>
<path d="M544.5 214.5V212.4C542.5 214.3 540.4 215.2 537.6 215.2C531.6 215.2 525.9 210.8 525.9 202.3C525.9 196.4 529.5 188.9 538 188.9C543.3 188.9 547 192.3 548.5 196.3L544 198.1C543.6 196.9 542.3 193.2 537.9 193.2C533.7 193.2 530.9 196.7 530.9 202.2C530.9 203.3 531.1 210.8 538 210.8C541.3 210.8 543.7 208.9 544.1 205H537.9V200.9H548.4V214.5H544.5Z" fill="#E0ECF1"/>
<path d="M577.1 189.5C582.3 189.5 586 192.7 586 197.8C586 202.3 583.4 206 576.9 206H572.1V214.5H567.4V189.6H577.1V189.5ZM572 202.1H576.1C579.4 202.1 581.1 200.5 581.1 197.6C581.1 193.6 577.8 193.4 575.6 193.4H572V202.1Z" fill="#E0ECF1"/>
<path d="M592 214.501V189.601H596.7V210.301H606.6V214.501H592V214.501Z" fill="#E0ECF1"/>
<path d="M626.7 214.501L625.3 209.601H615.9L614.4 214.501H609.4L617.8 189.601H623.1L631.6 214.501H626.7ZM620.6 194.001L617.1 205.501H624L620.6 194.001Z" fill="#E0ECF1"/>
<path d="M651.901 214.501L641.001 197.001C641.001 197.001 641.301 214.001 641.301 214.501H636.701V189.601H640.901L652.001 207.201C652.001 207.201 651.501 190.201 651.401 189.601H656.001V214.501H651.901Z" fill="#E0ECF1"/>
<path d="M672.801 193.7V214.4H668.101V193.7H661.301V189.5H679.601V193.7H672.801Z" fill="#E0ECF1"/>
<g filter="url(#filter0_d_2208_45510)">
<path d="M662.599 133.6L662.099 133.4L661.799 133.8C659.099 137.4 655.399 139.5 651.999 139.5H611.499C605.099 139.5 601.799 135.7 600.799 127.3H684.299H684.899L684.999 126.8C685.799 122.8 686.299 118.8 686.299 115.3C686.299 104.9 682.799 95.5996 676.499 88.9996C669.599 81.8996 659.699 78.0996 647.799 78.0996H610.999C586.699 78.0996 572.199 93.4996 572.199 119.3C572.199 145.1 586.699 160.5 610.999 160.5H652.399C667.499 160.5 678.799 154.4 684.999 142.8L685.399 142.1L684.699 141.8L662.599 133.6ZM601.099 109C602.399 102.2 605.699 98.9996 611.499 98.9996H647.999C654.499 98.9996 658.799 102.9 659.199 109H601.099Z" fill="#E0ECF1"/>
</g>
<g filter="url(#filter1_d_2208_45510)">
<path d="M798.101 78.2002H693.001H692.301V78.8002V98.6002V99.3002H693.001H731.401V159.8V160.5H732.101H759.001H759.701V159.8V99.3002H798.101H798.801V98.6002V78.8002V78.2002H798.101Z" fill="#E0ECF1"/>
</g>
<g filter="url(#filter2_d_2208_45510)">
<path d="M902.901 87.7996C896.101 81.3996 886.201 78.0996 873.501 78.0996H840.001C824.901 78.0996 813.601 84.1996 807.401 95.7996L807.001 96.4996L807.801 96.7996L829.501 104.5L830.101 104.7L830.401 104.2C832.101 100.9 836.601 98.2996 840.501 98.2996H873.101C881.201 98.2996 884.101 104 884.101 108.8V110H839.601C828.501 110 820.001 112.3 814.401 116.8C809.101 121.1 806.301 127.3 806.301 135.2C806.301 146.7 812.101 160.5 839.601 160.5H859.401C869.901 160.5 878.201 157.3 884.101 151.1V159.8V160.5H884.801H911.901H912.601V159.8V112.7C912.401 102.4 909.101 93.7996 902.901 87.7996ZM884.001 127.3V129.9C884.001 137.5 879.901 141.8 872.901 141.8H839.501C835.801 141.8 834.201 138.2 834.201 134.6C834.201 130.9 835.801 127.3 839.501 127.3H884.001Z" fill="#E0ECF1"/>
</g>
<path d="M416.999 78.2002H390.199V160.5H416.999V78.2002Z" fill="#E0ECF1"/>
<g filter="url(#filter3_d_2208_45510)">
<path d="M346.3 78.2002L315.6 142.7L285.2 78.2002H252L292.7 160.5H336.6L378.1 78.2002H346.3Z" fill="#E0ECF1"/>
</g>
<g filter="url(#filter4_d_2208_45510)">
<path d="M559.8 78.2002H533.8V137H533C530.7 137 528.6 136 527.1 134.3L488.6 89.3002C482.6 82.3002 474 78.3002 464.8 78.3002H464H438V160.6H464V101.9H464.8C467.1 101.9 469.2 102.9 470.7 104.6L509.2 149.6C515.2 156.6 523.8 160.6 533 160.6H547.8H559.8V78.2002Z" fill="#E0ECF1"/>
</g>
<defs>
<filter id="filter0_d_2208_45510" x="568.199" y="78.0996" width="122.1" height="90.4004" filterUnits="userSpaceOnUse" color-interpolation-filters="sRGB">
<feFlood flood-opacity="0" result="BackgroundImageFix"/>
<feColorMatrix in="SourceAlpha" type="matrix" values="0 0 0 0 0 0 0 0 0 0 0 0 0 0 0 0 0 0 127 0" result="hardAlpha"/>
<feOffset dy="4"/>
<feGaussianBlur stdDeviation="2"/>
<feComposite in2="hardAlpha" operator="out"/>
<feColorMatrix type="matrix" values="0 0 0 0 0 0 0 0 0 0 0 0 0 0 0 0 0 0 0.25 0"/>
<feBlend mode="normal" in2="BackgroundImageFix" result="effect1_dropShadow_2208_45510"/>
<feBlend mode="normal" in="SourceGraphic" in2="effect1_dropShadow_2208_45510" result="shape"/>
</filter>
<filter id="filter1_d_2208_45510" x="688.301" y="78.2002" width="114.5" height="90.2998" filterUnits="userSpaceOnUse" color-interpolation-filters="sRGB">
<feFlood flood-opacity="0" result="BackgroundImageFix"/>
<feColorMatrix in="SourceAlpha" type="matrix" values="0 0 0 0 0 0 0 0 0 0 0 0 0 0 0 0 0 0 127 0" result="hardAlpha"/>
<feOffset dy="4"/>
<feGaussianBlur stdDeviation="2"/>
<feComposite in2="hardAlpha" operator="out"/>
<feColorMatrix type="matrix" values="0 0 0 0 0 0 0 0 0 0 0 0 0 0 0 0 0 0 0.25 0"/>
<feBlend mode="normal" in2="BackgroundImageFix" result="effect1_dropShadow_2208_45510"/>
<feBlend mode="normal" in="SourceGraphic" in2="effect1_dropShadow_2208_45510" result="shape"/>
</filter>
<filter id="filter2_d_2208_45510" x="802.301" y="78.0996" width="114.301" height="90.4004" filterUnits="userSpaceOnUse" color-interpolation-filters="sRGB">
<feFlood flood-opacity="0" result="BackgroundImageFix"/>
<feColorMatrix in="SourceAlpha" type="matrix" values="0 0 0 0 0 0 0 0 0 0 0 0 0 0 0 0 0 0 127 0" result="hardAlpha"/>
<feOffset dy="4"/>
<feGaussianBlur stdDeviation="2"/>
<feComposite in2="hardAlpha" operator="out"/>
<feColorMatrix type="matrix" values="0 0 0 0 0 0 0 0 0 0 0 0 0 0 0 0 0 0 0.25 0"/>
<feBlend mode="normal" in2="BackgroundImageFix" result="effect1_dropShadow_2208_45510"/>
<feBlend mode="normal" in="SourceGraphic" in2="effect1_dropShadow_2208_45510" result="shape"/>
</filter>
<filter id="filter3_d_2208_45510" x="248" y="78.2002" width="134.1" height="90.2998" filterUnits="userSpaceOnUse" color-interpolation-filters="sRGB">
<feFlood flood-opacity="0" result="BackgroundImageFix"/>
<feColorMatrix in="SourceAlpha" type="matrix" values="0 0 0 0 0 0 0 0 0 0 0 0 0 0 0 0 0 0 127 0" result="hardAlpha"/>
<feOffset dy="4"/>
<feGaussianBlur stdDeviation="2"/>
<feComposite in2="hardAlpha" operator="out"/>
<feColorMatrix type="matrix" values="0 0 0 0 0 0 0 0 0 0 0 0 0 0 0 0 0 0 0.25 0"/>
<feBlend mode="normal" in2="BackgroundImageFix" result="effect1_dropShadow_2208_45510"/>
<feBlend mode="normal" in="SourceGraphic" in2="effect1_dropShadow_2208_45510" result="shape"/>
</filter>
<filter id="filter4_d_2208_45510" x="434" y="78.2002" width="129.801" height="90.4004" filterUnits="userSpaceOnUse" color-interpolation-filters="sRGB">
<feFlood flood-opacity="0" result="BackgroundImageFix"/>
<feColorMatrix in="SourceAlpha" type="matrix" values="0 0 0 0 0 0 0 0 0 0 0 0 0 0 0 0 0 0 127 0" result="hardAlpha"/>
<feOffset dy="4"/>
<feGaussianBlur stdDeviation="2"/>
<feComposite in2="hardAlpha" operator="out"/>
<feColorMatrix type="matrix" values="0 0 0 0 0 0 0 0 0 0 0 0 0 0 0 0 0 0 0.25 0"/>
<feBlend mode="normal" in2="BackgroundImageFix" result="effect1_dropShadow_2208_45510"/>
<feBlend mode="normal" in="SourceGraphic" in2="effect1_dropShadow_2208_45510" result="shape"/>
</filter>
</defs>
</svg>
