<?xml version="1.0" encoding="utf-8"?>
<svg xmlns="http://www.w3.org/2000/svg" viewBox="0 0 15.8 15.7">
	<path class="st0" d="M15,15.7c-0.2,0-0.4-0.1-0.5-0.2l-2.9-2.9c-1.3,1-2.8,1.6-4.5,1.6c-1.9,0-3.7-0.7-5-2.1C0.7,10.8,0,9,0,7.1
		c0-1.9,0.7-3.7,2.1-5c0.7-0.7,1.4-1.2,2.3-1.5c1.7-0.7,3.7-0.7,5.4,0c0.9,0.4,1.6,0.9,2.3,1.5c0.7,0.7,1.2,1.4,1.5,2.3
		c0.4,0.9,0.5,1.8,0.5,2.7S14,8.9,13.6,9.8c-0.3,0.6-0.6,1.2-1,1.7l2.9,2.9c0.3,0.3,0.3,0.8,0,1.1C15.4,15.7,15.2,15.7,15,15.7z
		 M7.1,1.5c-0.7,0-1.5,0.1-2.1,0.4C4.3,2.2,3.7,2.6,3.1,3.1C2.1,4.2,1.5,5.6,1.5,7.1S2.1,10,3.1,11s2.5,1.6,3.9,1.6
		c1.5,0,2.9-0.6,3.9-1.6c0,0,0,0,0,0l0,0c0,0,0,0,0,0c0.5-0.5,0.9-1.1,1.2-1.8c0.3-0.7,0.4-1.4,0.4-2.1c0-0.7-0.1-1.5-0.4-2.1
		C12,4.3,11.6,3.7,11,3.1c-0.5-0.5-1.1-0.9-1.8-1.2C8.5,1.6,7.8,1.5,7.1,1.5z M7.1,10.2c-0.4,0-0.8-0.3-0.8-0.8V7.8H4.7
		C4.3,7.8,4,7.5,4,7.1s0.3-0.8,0.8-0.8h1.6V4.7C6.3,4.3,6.7,4,7.1,4s0.8,0.3,0.8,0.8v1.6h1.6c0.4,0,0.8,0.3,0.8,0.8S9.9,7.8,9.5,7.8
		H7.8v1.6C7.8,9.9,7.5,10.2,7.1,10.2z"/>
</svg>
