<?xml version="1.0" encoding="utf-8"?>
<!-- Generator: Adobe Illustrator 26.5.0, SVG Export Plug-In . SVG Version: 6.00 Build 0)  -->
<svg version="1.1" id="Слой_1" xmlns="http://www.w3.org/2000/svg" xmlns:xlink="http://www.w3.org/1999/xlink" x="0px" y="0px"
	 viewBox="0 0 16 24" style="enable-background:new 0 0 16 24;" xml:space="preserve">
<style type="text/css">
	.st0{fill:#555F76;fill-opacity:0.5;}
	.st1{fill:#FF0040;}
</style>
<path class="st0" d="M9.3,8.5c0,0.7-0.6,1.3-1.3,1.3S6.7,9.3,6.7,8.5V6.2c0-0.7,0.6-1.3,1.3-1.3s1.3,0.6,1.3,1.3V8.5z"/>
<path class="st1" d="M8.8,4.1C9.6,4.4,10,5.1,10,5.8V9c0,0.8-0.5,1.4-1.2,1.7v1.7h6.9V6.6c0-3.3-2.7-5.9-6.1-5.9H8.8V4.1z"/>
<path class="st0" d="M0.3,12.9v4.5c0,3.3,2.7,5.9,6.1,5.9h3.3c3.4,0,6.1-2.6,6.1-5.9v-4.5H0.3z"/>
<path class="st0" d="M7.2,12.4v-1.7C6.4,10.4,6,9.7,6,9V5.8c0-0.8,0.5-1.4,1.2-1.7V0.8H6.4C3,0.8,0.3,3.4,0.3,6.6v5.8H7.2z"/>
</svg>
