<svg width="169" height="44" viewBox="0 0 169 44" fill="none" xmlns="http://www.w3.org/2000/svg">
<g clip-path="url(#clip0_1531_22292)">
<path d="M50.2922 30.8C46.8015 30.8 43.9766 28.0074 43.9766 23.938C43.9766 19.6892 46.3979 16.6572 50.5949 16.6572C53.9444 16.6572 56.9106 19.1905 56.9106 23.5191C56.9106 27.6682 54.5094 30.8 50.2922 30.8ZM50.3326 19.0708C48.2946 19.0708 46.8216 20.7265 46.8216 23.5191C46.8216 26.8105 48.0323 28.4263 50.5546 28.4263C52.6934 28.4263 54.0655 26.9102 54.0655 23.8981C54.0655 20.6866 52.6732 19.0549 50.3326 19.0549V19.0708Z" fill="white"/>
<path d="M67.3022 23.2598C66.939 22.6414 65.9099 22.1427 64.3562 22.1427C63.5824 22.1394 62.8382 22.4364 62.2835 22.9698C61.7288 23.5032 61.408 24.2305 61.3901 24.9953C61.3901 26.9501 62.5604 28.2866 64.3966 28.2866C65.9503 28.2866 66.8784 27.7879 67.2618 27.2892H67.3627V28.526C67.3627 29.8226 66.0915 30.7601 64.1343 30.7601C63.4117 30.7712 62.694 30.641 62.0225 30.377C61.351 30.113 60.7388 29.7203 60.2213 29.2217C59.7038 28.723 59.2911 28.1282 59.0068 27.4714C58.7226 26.8145 58.5725 26.1086 58.5651 25.3942C58.5651 22.3223 60.7242 19.6892 64.4369 19.6892C66.1722 19.6892 67.4031 20.7265 67.4031 22.0031V23.2598H67.3022Z" fill="white"/>
<path d="M73.9205 30.7801C71.7615 30.7801 69.2594 30.1018 69.2594 27.1496V19.7889H69.7235C71.2974 19.7889 71.9633 20.4472 71.9633 21.7039V23.5989C72.6132 23.2402 73.3384 23.0354 74.082 23.0005C76.6849 23.0005 78.4404 24.696 78.4404 26.9302C78.4404 29.1643 76.7454 30.7801 73.9205 30.7801ZM73.6582 25.0391C73.0599 25.0782 72.4793 25.2558 71.9633 25.5578V27.2134C71.9633 28.2507 73.0529 28.6497 73.9407 28.6497C75.0101 28.6497 75.6962 28.0113 75.6962 26.8544C75.6962 25.6974 74.8043 25.0391 73.6582 25.0391Z" fill="white"/>
<path d="M92.2219 30.5606C91.2332 30.5606 90.5875 30.042 90.5875 28.9648C90.5875 27.8877 90.4059 24.8556 90.2243 23.2C90.0629 23.5989 89.8611 24.1176 89.6392 24.7559C89.2558 25.9129 88.2267 29.1045 87.4599 30.5407H86.8748C85.9668 30.5407 85.3211 29.8425 84.5543 27.6084C84.2113 26.5911 83.5656 24.337 83.041 23.1601C82.7787 25.3942 82.5769 28.6257 82.5769 30.5407H81.5478C81.334 30.5473 81.1211 30.5106 80.9222 30.4328C80.7233 30.3549 80.5427 30.2376 80.3914 30.0881C80.2402 29.9385 80.1215 29.76 80.0427 29.5633C79.964 29.3667 79.9268 29.1562 79.9336 28.9449C80.0253 25.8596 80.3967 22.7887 81.0434 19.769H82.0321C84.635 19.769 85.422 23.1401 86.108 25.1149C86.33 25.7333 86.4309 26.3716 86.6932 26.9701C87.1976 25.4939 87.8635 23.5989 88.4083 22.2425C88.7573 21.3343 89.2701 20.4963 89.9216 19.769H90.4866C91.9192 19.769 92.5649 20.6267 92.7465 22.063C93.029 24.3968 93.3721 27.6882 93.4124 30.5407L92.2219 30.5606Z" fill="white"/>
<path d="M100.939 30.7003C97.2664 30.7003 95.5917 29.0247 95.5917 25.6735V19.7889H96.0558C97.6296 19.7889 98.2955 20.4472 98.2955 21.7039V25.7732C98.2955 27.6483 99.1631 28.4262 100.798 28.4262C101.355 28.4253 101.911 28.3583 102.452 28.2268V19.7889H102.916C104.49 19.7889 105.156 20.4472 105.156 21.7039V30.0819C103.786 30.4817 102.367 30.6899 100.939 30.7003Z" fill="white"/>
<path d="M116.698 30.5606C115.406 30.5606 114.66 29.9024 114.66 28.6457V25.9926H110.483V30.5606H109.817C108.526 30.5606 107.779 29.9024 107.779 28.6457V19.7889H108.243C109.817 19.7889 110.483 20.4472 110.483 21.7039V23.9181H114.66V19.7889H115.124C116.698 19.7889 117.364 20.4472 117.364 21.7039V30.5606H116.698Z" fill="white"/>
<path d="M124.628 30.8C121.359 30.8 119.482 28.2268 119.482 25.3743C119.482 22.1428 121.359 19.5496 124.87 19.5496C128.139 19.5496 130.015 22.1428 130.015 24.9953C130.015 28.2308 128.139 30.8 124.628 30.8ZM124.628 21.9433C123.074 21.9433 122.287 23.2199 122.287 24.9953C122.287 27.1297 123.074 28.4063 124.87 28.4063C126.444 28.4063 127.21 27.1297 127.21 25.3743C127.21 23.2199 126.403 21.9433 124.628 21.9433Z" fill="white"/>
<path d="M143.111 24.7359C143.862 25.8754 144.685 26.9679 145.572 28.0073C146.46 28.9648 146.823 29.1444 147.53 29.3039C147.388 30.1417 146.944 30.6404 145.794 30.6404C145.486 30.6441 145.181 30.5859 144.896 30.4693C144.612 30.3527 144.355 30.1802 144.14 29.9622C142.808 28.5459 141.738 26.9102 140.588 25.3543V30.5407H139.922C138.631 30.5407 137.885 29.8824 137.885 28.6257V25.3344C136.714 26.8903 135.665 28.526 134.333 29.9423C134.113 30.1592 133.852 30.3308 133.565 30.4472C133.277 30.5637 132.969 30.6225 132.658 30.6205C131.508 30.6205 131.064 30.1218 130.923 29.284C131.629 29.1244 131.993 28.9449 132.88 27.9874C133.774 26.9529 134.597 25.86 135.342 24.716C133.962 23.0185 132.479 21.4063 130.899 19.8887V19.7889H132.796C133.724 19.7889 134.168 20.0084 134.491 20.3475C135.717 21.6491 136.856 23.0284 137.901 24.4766V19.7889H138.365C139.939 19.7889 140.604 20.4472 140.604 21.7039V24.4966C141.643 23.0489 142.775 21.6696 143.994 20.3674C144.337 20.0283 144.781 19.8089 145.689 19.8089H147.606V19.9086C146.013 21.4287 144.512 23.0407 143.111 24.7359Z" fill="white"/>
<path d="M157.255 30.6245C156.591 30.6072 155.957 30.3438 155.48 29.8864C154.116 28.4395 152.849 26.907 151.686 25.2985V30.5646H150.819C149.568 30.5646 148.962 29.9263 148.962 28.6696V19.7889H149.83C151.141 19.7889 151.686 20.527 151.686 21.5643V24.3968C152.69 23.0092 153.804 21.702 155.016 20.4871C155.661 19.8887 156.307 19.7889 157.175 19.7889H158.744V19.8887C157.17 21.4315 155.688 23.0633 154.305 24.7758C155.173 25.8331 156.02 26.9302 156.989 27.9076C157.957 28.885 158.422 29.1045 159.087 29.3039C158.809 30.1617 158.365 30.6245 157.255 30.6245Z" fill="white"/>
<path d="M164.883 30.7402H164.338C161.755 30.7402 159.979 29.3039 159.979 27.3291C159.979 25.4142 161.392 23.958 165.387 23.958H166.335V23.8184C166.335 22.3023 165.609 21.8236 163.995 21.8236C162.037 21.8236 160.948 22.5617 160.544 23.0603H160.443V22.2225C160.443 21.0257 161.533 19.5895 164.398 19.5895C166.82 19.5895 168.999 20.7065 168.999 24.4168V26.8903C168.999 29.1643 167.304 30.7402 164.883 30.7402ZM166.356 25.873H165.387C163.329 25.873 162.744 26.3517 162.744 27.2294C162.744 28.1071 163.43 28.5659 164.62 28.5659C165.811 28.5659 166.356 28.0073 166.356 26.9102V25.873Z" fill="white"/>
<path d="M47.7604 33.9429V36.2648C47.4301 35.7651 46.8898 35.5006 46.2593 35.5006C45.1336 35.5006 44.293 36.2942 44.293 37.4625C44.293 38.6308 45.1336 39.4317 46.2593 39.4317C46.9123 39.4317 47.4602 39.1525 47.7829 38.6308V39.3949H48.2932V33.9429H47.7604ZM46.3044 38.9688C45.4638 38.9688 44.8333 38.3663 44.8333 37.4625C44.8333 36.5587 45.4638 35.9562 46.3044 35.9562C47.1374 35.9562 47.7679 36.5587 47.7679 37.4625C47.7679 38.3663 47.1374 38.9688 46.3044 38.9688Z" fill="white"/>
<path d="M50.0475 34.685C50.2726 34.685 50.4377 34.516 50.4377 34.3029C50.4377 34.1045 50.2651 33.9429 50.0475 33.9429C49.8298 33.9429 49.6572 34.1119 49.6572 34.3103C49.6572 34.516 49.8298 34.685 50.0475 34.685ZM49.7773 39.3949H50.3102V35.53H49.7773V39.3949Z" fill="white"/>
<path d="M54.9375 35.53V36.2721C54.6073 35.7651 54.0369 35.5006 53.3764 35.5006C52.2507 35.5006 51.3951 36.2574 51.3951 37.3669C51.3951 38.4765 52.2507 39.248 53.3764 39.248C54.0219 39.248 54.5848 38.9908 54.915 38.4985V38.9908C54.915 39.946 54.4572 40.3942 53.459 40.3942C52.8511 40.3942 52.2807 40.1959 51.9054 39.8652L51.6352 40.262C52.048 40.6441 52.7535 40.8572 53.474 40.8572C54.7799 40.8572 55.4479 40.2546 55.4479 38.9247V35.53H54.9375ZM53.429 38.7851C52.5584 38.7851 51.9354 38.2046 51.9354 37.3669C51.9354 36.5293 52.5584 35.9562 53.429 35.9562C54.2996 35.9562 54.93 36.5293 54.93 37.3669C54.93 38.2046 54.2996 38.7851 53.429 38.7851Z" fill="white"/>
<path d="M57.2082 34.685C57.4334 34.685 57.5985 34.516 57.5985 34.3029C57.5985 34.1045 57.4259 33.9429 57.2082 33.9429C56.9906 33.9429 56.8179 34.1119 56.8179 34.3103C56.8179 34.516 56.9906 34.685 57.2082 34.685ZM56.938 39.3949H57.4709V35.53H56.938V39.3949Z" fill="white"/>
<path d="M60.8449 38.7851C60.6948 38.9173 60.4771 38.9835 60.2595 38.9835C59.8167 38.9835 59.5765 38.7336 59.5765 38.2781V35.9709H60.7773V35.53H59.5765V34.685H59.0436V35.53H58.3382V35.9709H59.0436V38.3075C59.0436 39.0202 59.4564 39.4317 60.1994 39.4317C60.5072 39.4317 60.8224 39.3435 61.0325 39.1598L60.8449 38.7851Z" fill="white"/>
<path d="M63.3835 35.5006C62.7606 35.5006 62.1752 35.6916 61.7774 36.0223L62.0176 36.4117C62.3403 36.1325 62.8206 35.9562 63.331 35.9562C64.0665 35.9562 64.4493 36.3162 64.4493 36.9775V37.2126H63.1959C62.0626 37.2126 61.6723 37.7123 61.6723 38.3075C61.6723 38.9761 62.2202 39.4317 63.1133 39.4317C63.7663 39.4317 64.2316 39.1892 64.4718 38.7924V39.3949H64.9821V36.9996C64.9821 36.0003 64.4042 35.5006 63.3835 35.5006ZM63.1959 39.0202C62.5655 39.0202 62.1977 38.741 62.1977 38.2928C62.1977 37.896 62.4454 37.6021 63.2109 37.6021H64.4493V38.234C64.2391 38.741 63.7963 39.0202 63.1959 39.0202Z" fill="white"/>
<path d="M66.4295 39.3949H66.9623V33.9429H66.4295V39.3949Z" fill="white"/>
<path d="M68.1523 37.6315H70.1187V37.1759H68.1523V37.6315Z" fill="white"/>
<path d="M72.6917 35.5006C72.0688 35.5006 71.4834 35.6916 71.0856 36.0223L71.3258 36.4117C71.6485 36.1325 72.1289 35.9562 72.6392 35.9562C73.3747 35.9562 73.7575 36.3162 73.7575 36.9775V37.2126H72.5041C71.3708 37.2126 70.9806 37.7123 70.9806 38.3075C70.9806 38.9761 71.5284 39.4317 72.4216 39.4317C73.0745 39.4317 73.5398 39.1892 73.78 38.7924V39.3949H74.2904V36.9996C74.2904 36.0003 73.7125 35.5006 72.6917 35.5006ZM72.5041 39.0202C71.8737 39.0202 71.5059 38.741 71.5059 38.2928C71.5059 37.896 71.7536 37.6021 72.5191 37.6021H73.7575V38.234C73.5473 38.741 73.1045 39.0202 72.5041 39.0202Z" fill="white"/>
<path d="M78.897 35.53V36.2721C78.5668 35.7651 77.9964 35.5006 77.3359 35.5006C76.2102 35.5006 75.3546 36.2574 75.3546 37.3669C75.3546 38.4765 76.2102 39.248 77.3359 39.248C77.9814 39.248 78.5443 38.9908 78.8745 38.4985V38.9908C78.8745 39.946 78.4167 40.3942 77.4185 40.3942C76.8106 40.3942 76.2402 40.1959 75.8649 39.8652L75.5947 40.262C76.0075 40.6441 76.713 40.8572 77.4335 40.8572C78.7394 40.8572 79.4074 40.2546 79.4074 38.9247V35.53H78.897ZM77.3885 38.7851C76.5179 38.7851 75.8949 38.2046 75.8949 37.3669C75.8949 36.5293 76.5179 35.9562 77.3885 35.9562C78.2591 35.9562 78.8895 36.5293 78.8895 37.3669C78.8895 38.2046 78.2591 38.7851 77.3885 38.7851Z" fill="white"/>
<path d="M84.3424 37.4625C84.3424 36.3015 83.5394 35.5006 82.4286 35.5006C81.3178 35.5006 80.4997 36.3162 80.4997 37.4625C80.4997 38.6087 81.3403 39.4317 82.5712 39.4317C83.1941 39.4317 83.742 39.2112 84.0947 38.7998L83.7945 38.4618C83.4943 38.7998 83.0665 38.9688 82.5862 38.9688C81.7231 38.9688 81.0927 38.4324 81.0326 37.6241H84.3349C84.3349 37.5653 84.3424 37.5066 84.3424 37.4625ZM82.4286 35.9488C83.2016 35.9488 83.7645 36.4779 83.8321 37.2347H81.0326C81.1002 36.4779 81.6631 35.9488 82.4286 35.9488Z" fill="white"/>
<path d="M87.4384 35.5006C86.7555 35.5006 86.2226 35.7725 85.9374 36.2427V35.53H85.427V39.3949H85.9599V37.3669C85.9599 36.4852 86.4928 35.9709 87.3409 35.9709C88.0914 35.9709 88.5267 36.3897 88.5267 37.2053V39.3949H89.0596V37.1539C89.0596 36.0443 88.3991 35.5006 87.4384 35.5006Z" fill="white"/>
<path d="M92.157 39.4317C92.825 39.4317 93.3879 39.1672 93.7031 38.6675L93.3053 38.403C93.0351 38.7924 92.6149 38.9688 92.157 38.9688C91.2939 38.9688 90.6635 38.3736 90.6635 37.4625C90.6635 36.5587 91.2939 35.9562 92.157 35.9562C92.6149 35.9562 93.0351 36.1399 93.3053 36.5293L93.7031 36.2648C93.3879 35.7578 92.825 35.5006 92.157 35.5006C90.9787 35.5006 90.1231 36.3089 90.1231 37.4625C90.1231 38.6161 90.9787 39.4317 92.157 39.4317Z" fill="white"/>
<path d="M97.4832 35.53L95.9972 38.8145L94.5112 35.53H93.9558L95.7195 39.3876L95.5469 39.7623C95.3217 40.2473 95.0816 40.4089 94.7288 40.4089C94.4436 40.4089 94.2034 40.3061 94.0083 40.115L93.7606 40.5045C94.0008 40.7396 94.3535 40.8572 94.7213 40.8572C95.2842 40.8572 95.7045 40.6147 96.0347 39.8579L98.0086 35.53H97.4832Z" fill="white"/>
<path d="M51.1603 5.5943V11.3143H50.5804V6.7383L48.3344 10.587H48.0485L45.8025 6.76281V11.3143H45.2227V5.5943H45.7209L48.2037 9.83527L50.6621 5.5943H51.1603Z" fill="white"/>
<path d="M54.4033 6.98344C54.9641 6.98344 55.3943 7.12508 55.6938 7.40836C55.9932 7.68618 56.143 8.1002 56.143 8.65041V11.3143H55.5876V10.6442C55.4569 10.8676 55.2636 11.0419 55.0077 11.1672C54.7572 11.2925 54.4578 11.3552 54.1093 11.3552C53.6302 11.3552 53.249 11.2408 52.9659 11.012C52.6827 10.7832 52.5412 10.4808 52.5412 10.1049C52.5412 9.73994 52.6719 9.44577 52.9332 9.22241C53.2 8.99906 53.622 8.88738 54.1991 8.88738H55.5631V8.6259C55.5631 8.25546 55.4596 7.97491 55.2527 7.78424C55.0458 7.58813 54.7436 7.49007 54.3462 7.49007C54.0739 7.49007 53.8126 7.53638 53.5621 7.62898C53.3116 7.71615 53.0966 7.83872 52.9169 7.9967L52.6555 7.56361C52.8733 7.37839 53.1347 7.23676 53.4396 7.1387C53.7445 7.03519 54.0657 6.98344 54.4033 6.98344ZM54.1991 10.8976C54.5258 10.8976 54.8062 10.824 55.0404 10.6769C55.2745 10.5244 55.4487 10.3065 55.5631 10.0232V9.32047H54.2155C53.4804 9.32047 53.1129 9.57651 53.1129 10.0886C53.1129 10.3392 53.2082 10.538 53.3987 10.6851C53.5893 10.8267 53.8561 10.8976 54.1991 10.8976Z" fill="white"/>
<path d="M61.6542 5.2511V11.3143H61.0988V10.4645C60.9246 10.7532 60.6932 10.9738 60.4046 11.1264C60.1215 11.2789 59.8002 11.3552 59.4409 11.3552C59.038 11.3552 58.6732 11.2625 58.3465 11.0773C58.0198 10.8921 57.7639 10.6333 57.5787 10.301C57.3936 9.96874 57.3011 9.59013 57.3011 9.16521C57.3011 8.7403 57.3936 8.36169 57.5787 8.02938C57.7639 7.69708 58.0198 7.44104 58.3465 7.26127C58.6732 7.07605 59.038 6.98344 59.4409 6.98344C59.7894 6.98344 60.1024 7.05698 60.3801 7.20407C60.6633 7.34571 60.8947 7.55544 61.0743 7.83327V5.2511H61.6542ZM59.4899 10.8404C59.7894 10.8404 60.0589 10.7723 60.2984 10.6361C60.5435 10.4944 60.734 10.2956 60.8702 10.0396C61.0117 9.78352 61.0825 9.49207 61.0825 9.16521C61.0825 8.83836 61.0117 8.54691 60.8702 8.29087C60.734 8.03483 60.5435 7.83872 60.2984 7.70253C60.0589 7.56089 59.7894 7.49007 59.4899 7.49007C59.185 7.49007 58.91 7.56089 58.665 7.70253C58.4254 7.83872 58.2348 8.03483 58.0933 8.29087C57.9572 8.54691 57.8891 8.83836 57.8891 9.16521C57.8891 9.49207 57.9572 9.78352 58.0933 10.0396C58.2348 10.2956 58.4254 10.4944 58.665 10.6361C58.91 10.7723 59.185 10.8404 59.4899 10.8404Z" fill="white"/>
<path d="M67.0098 9.34499H63.4162C63.4488 9.79169 63.6204 10.154 63.9307 10.4318C64.2411 10.7042 64.6331 10.8404 65.1068 10.8404C65.3736 10.8404 65.6186 10.7941 65.8419 10.7014C66.0651 10.6034 66.2584 10.4617 66.4217 10.2765L66.7484 10.6524C66.5579 10.8812 66.3183 11.0555 66.0297 11.1754C65.7466 11.2952 65.4335 11.3552 65.0905 11.3552C64.6494 11.3552 64.2574 11.2625 63.9144 11.0773C63.5768 10.8867 63.3127 10.6252 63.1222 10.2929C62.9316 9.96057 62.8363 9.58468 62.8363 9.16521C62.8363 8.74575 62.9261 8.36986 63.1058 8.03756C63.2909 7.70525 63.5414 7.44649 63.8572 7.26127C64.1785 7.07605 64.5378 6.98344 64.9353 6.98344C65.3328 6.98344 65.6894 7.07605 66.0052 7.26127C66.321 7.44649 66.5688 7.70525 66.7484 8.03756C66.9281 8.36441 67.018 8.7403 67.018 9.16521L67.0098 9.34499ZM64.9353 7.4819C64.5215 7.4819 64.173 7.61537 63.8899 7.8823C63.6122 8.14378 63.4543 8.48698 63.4162 8.9119H66.4626C66.4245 8.48698 66.2638 8.14378 65.9807 7.8823C65.703 7.61537 65.3545 7.4819 64.9353 7.4819Z" fill="white"/>
<path d="M72.5491 6.98344C72.952 6.98344 73.3168 7.07605 73.6435 7.26127C73.9702 7.44104 74.2261 7.69708 74.4113 8.02938C74.5964 8.36169 74.6889 8.7403 74.6889 9.16521C74.6889 9.59013 74.5964 9.96874 74.4113 10.301C74.2261 10.6333 73.9702 10.8921 73.6435 11.0773C73.3168 11.2625 72.952 11.3552 72.5491 11.3552C72.1898 11.3552 71.8658 11.2789 71.5772 11.1264C71.2941 10.9738 71.0654 10.7532 70.8912 10.4645V11.3143H70.3358V5.2511H70.9157V7.83327C71.0953 7.55544 71.324 7.34571 71.6017 7.20407C71.8848 7.05698 72.2006 6.98344 72.5491 6.98344ZM72.5083 10.8404C72.8078 10.8404 73.08 10.7723 73.325 10.6361C73.57 10.4944 73.7606 10.2956 73.8967 10.0396C74.0383 9.78352 74.1091 9.49207 74.1091 9.16521C74.1091 8.83836 74.0383 8.54691 73.8967 8.29087C73.7606 8.03483 73.57 7.83872 73.325 7.70253C73.08 7.56089 72.8078 7.49007 72.5083 7.49007C72.2034 7.49007 71.9284 7.56089 71.6834 7.70253C71.4438 7.83872 71.2532 8.03483 71.1117 8.29087C70.9756 8.54691 70.9075 8.83836 70.9075 9.16521C70.9075 9.49207 70.9756 9.78352 71.1117 10.0396C71.2532 10.2956 71.4438 10.4944 71.6834 10.6361C71.9284 10.7723 72.2034 10.8404 72.5083 10.8404Z" fill="white"/>
<path d="M79.3613 7.01613L77.2133 11.8291C77.0391 12.2322 76.8376 12.5182 76.609 12.6871C76.3803 12.856 76.1053 12.9404 75.7841 12.9404C75.5772 12.9404 75.3839 12.9077 75.2042 12.8424C75.0245 12.777 74.8693 12.6789 74.7387 12.5482L75.0082 12.1151C75.226 12.333 75.4873 12.442 75.7922 12.442C75.9882 12.442 76.1543 12.3875 76.2904 12.2785C76.432 12.1696 76.5627 11.9844 76.6825 11.7229L76.8703 11.3061L74.951 7.01613H75.5554L77.1725 10.6688L78.7896 7.01613H79.3613Z" fill="white"/>
<path fill-rule="evenodd" clip-rule="evenodd" d="M33.7211 18.8445C33.8068 18.7825 33.9095 18.7492 34.0149 18.749C34.1203 18.7488 34.2231 18.7818 34.3089 18.8434C34.3948 18.905 34.4594 18.9921 34.4937 19.0926C34.528 19.193 34.5303 19.3017 34.5003 19.4035C34.4702 19.5054 34.4094 19.5952 34.3262 19.6604C34.243 19.7256 34.1417 19.763 34.0364 19.7674C33.9311 19.7717 33.827 19.7427 33.7389 19.6846C33.6507 19.6264 33.5828 19.5418 33.5446 19.4428C33.4923 19.3393 33.4814 19.2195 33.5142 19.1081C33.5471 18.9967 33.6212 18.9023 33.7211 18.8445ZM32.8667 16.265C32.9562 16.0979 33.0955 15.9632 33.2648 15.8799C33.4342 15.7966 33.6252 15.7688 33.811 15.8004C33.9968 15.832 34.1682 15.9214 34.301 16.0561C34.4339 16.1908 34.5215 16.3641 34.5517 16.5516C34.582 16.739 34.5532 16.9314 34.4694 17.1015C34.3857 17.2717 34.2512 17.4112 34.0849 17.5004C33.9185 17.5896 33.7286 17.6241 33.5418 17.5991C33.355 17.574 33.1806 17.4907 33.0432 17.3607C32.8806 17.2352 32.7718 17.0519 32.7389 16.8482C32.7061 16.6445 32.7518 16.4359 32.8667 16.265ZM31.4627 16.5238C31.1498 16.4955 30.9171 16.2731 30.9412 16.0305C30.9726 15.8999 31.0537 15.7869 31.167 15.7158C31.2803 15.6447 31.4167 15.6213 31.5469 15.6505C31.8558 15.6788 32.0925 15.9012 32.0684 16.1437C32.036 16.2739 31.9547 16.3862 31.8417 16.4571C31.7287 16.528 31.5928 16.5519 31.4627 16.5238ZM34.8002 21.2339C34.8467 21.2067 34.8998 21.1932 34.9535 21.1948C35.0072 21.1963 35.0594 21.213 35.1043 21.2429C35.1491 21.2727 35.1848 21.3146 35.2073 21.3638C35.2298 21.4129 35.2383 21.4675 35.2317 21.5212C35.2252 21.575 35.2039 21.6258 35.1702 21.668C35.1366 21.7103 35.0919 21.7422 35.0412 21.7602C34.9906 21.7782 34.9359 21.7817 34.8834 21.7701C34.8309 21.7586 34.7826 21.7325 34.7441 21.6948C34.6927 21.6255 34.6698 21.5388 34.6803 21.453C34.6907 21.3671 34.7337 21.2886 34.8002 21.2339ZM35.2896 18.1935C35.3944 18.1301 35.5163 18.1013 35.6382 18.1112C35.7601 18.1211 35.8758 18.1692 35.9692 18.2487C36.0626 18.3282 36.1289 18.4352 36.1589 18.5547C36.1889 18.6741 36.1811 18.8001 36.1365 18.9148C36.092 19.0295 36.0129 19.1273 35.9104 19.1945C35.8078 19.2616 35.6871 19.2948 35.5649 19.2893C35.4428 19.2837 35.3254 19.2398 35.2293 19.1637C35.1332 19.0875 35.0631 18.983 35.0289 18.8647C34.9783 18.7405 34.9771 18.6014 35.0257 18.4764C35.0743 18.3514 35.1688 18.2501 35.2896 18.1935ZM25.3532 6.41225C26.0351 7.22085 26.344 8.59142 25.8305 10.7746C25.7302 10.1925 25.4013 8.32054 24.9961 7.54024L25.3532 6.42033V6.41225ZM23.5801 5.54705C21.9233 3.80856 19.2436 2.58757 15.2402 3.77621C15.2402 3.77621 17.7754 2.02155 20.7841 2.56331C22.1795 2.84913 23.4314 3.61877 24.3222 4.73845L23.5801 5.54705ZM20.5353 14.7206C22.2763 14.4861 24.5468 12.3716 24.5468 12.3716C24.5067 16.1963 21.2374 16.3863 20.5353 14.7206ZM20.4591 42.5203C20.3776 42.495 20.3092 42.4385 20.2687 42.3628C20.2281 42.2872 20.2187 42.1985 20.2425 42.116C20.2393 42.072 20.246 42.0279 20.2622 41.9869C20.2783 41.9459 20.3035 41.9092 20.3358 41.8794C20.3681 41.8497 20.4067 41.8278 20.4487 41.8153C20.4907 41.8028 20.5349 41.8001 20.578 41.8073C20.6212 41.8146 20.6621 41.8316 20.6978 41.8571C20.7335 41.8827 20.7629 41.916 20.7839 41.9547C20.8049 41.9934 20.8169 42.0364 20.819 42.0804C20.8211 42.1245 20.8133 42.1684 20.7961 42.209C20.764 42.4111 20.6116 42.5526 20.4591 42.5243V42.5203ZM18.7663 39.7508C18.6968 39.7983 18.6154 39.8251 18.5315 39.8283C18.4476 39.8316 18.3645 39.811 18.2916 39.7691C18.2187 39.7271 18.1589 39.6654 18.119 39.5909C18.0791 39.5165 18.0608 39.4322 18.066 39.3478C18.0712 39.2633 18.0998 39.182 18.1485 39.1131C18.1972 39.0442 18.2641 38.9904 18.3416 38.9579C18.4191 38.9253 18.5041 38.9153 18.587 38.929C18.6698 38.9426 18.7472 38.9794 18.8104 39.0352C18.8981 39.1363 18.9427 39.2681 18.9344 39.4021C18.9261 39.5362 18.8657 39.6615 18.7663 39.7508ZM19.2717 41.4448C19.193 41.4458 19.1159 41.4219 19.0513 41.3765C18.9868 41.331 18.9379 41.2664 18.9116 41.1916C18.8854 41.1167 18.883 41.0355 18.9049 40.9593C18.9268 40.883 18.9718 40.8156 19.0336 40.7664C19.0954 40.7173 19.171 40.6889 19.2496 40.6852C19.3283 40.6815 19.4061 40.7027 19.4722 40.7459C19.5383 40.789 19.5893 40.852 19.6181 40.9258C19.6469 40.9997 19.652 41.0808 19.6328 41.1578C19.6217 41.2437 19.5778 41.3218 19.5103 41.3754C19.4428 41.4291 19.3572 41.454 19.2717 41.4448ZM17.6952 37.891C17.5071 37.8814 17.3268 37.8127 17.1793 37.6946C17.0319 37.5765 16.9249 37.4148 16.8732 37.2323C16.8215 37.0498 16.8277 36.8556 16.891 36.6768C16.9543 36.4981 17.0714 36.3437 17.2261 36.2354C17.3808 36.1271 17.5652 36.0703 17.7535 36.0729C17.9418 36.0756 18.1245 36.1375 18.2762 36.25C18.4279 36.3625 18.5408 36.52 18.5992 36.7005C18.6576 36.8809 18.6585 37.0753 18.6018 37.2563C18.56 37.4589 18.4427 37.6377 18.274 37.7558C18.1054 37.8739 17.8982 37.9223 17.6952 37.891ZM17.7193 34.5111C17.76 34.4363 17.8206 34.3744 17.8944 34.3325C17.9681 34.2907 18.0521 34.2705 18.1367 34.2742C18.2212 34.2779 18.3031 34.3055 18.3729 34.3537C18.4428 34.4019 18.4978 34.4688 18.5319 34.547C18.5659 34.6251 18.5776 34.7113 18.5655 34.7957C18.5534 34.8802 18.5181 34.9595 18.4636 35.0248C18.4091 35.0901 18.3375 35.1387 18.257 35.1651C18.1765 35.1915 18.0903 35.1946 18.0081 35.1741C17.8848 35.122 17.7861 35.0241 17.7323 34.9007C17.6786 34.7773 17.6739 34.6379 17.7193 34.5111ZM14.0849 12.2018C14.0849 12.2018 16.3353 14.4659 18.0763 14.7004C17.3743 16.3661 14.3416 16.5036 14.0849 12.2018ZM26.4804 22.378C26.5894 22.4074 26.6882 22.4669 26.7654 22.5499C26.8427 22.6328 26.8955 22.7358 26.9177 22.8474C26.94 22.9589 26.9309 23.0745 26.8915 23.1811C26.8521 23.2877 26.7839 23.3811 26.6946 23.4507C26.6053 23.5203 26.4985 23.5634 26.3862 23.5751C26.2739 23.5868 26.1606 23.5666 26.0591 23.5169C25.9576 23.4672 25.8719 23.3898 25.8116 23.2936C25.7514 23.1974 25.719 23.0861 25.7182 22.9724C25.7441 22.7931 25.8381 22.631 25.9803 22.5201C26.1224 22.4093 26.3017 22.3583 26.4804 22.378ZM27.403 25.4265C27.5371 25.427 27.6677 25.4698 27.7764 25.549C27.8851 25.6281 27.9665 25.7396 28.0091 25.8677C28.0518 25.9959 28.0535 26.1343 28.0141 26.2635C27.9746 26.3927 27.8961 26.5062 27.7894 26.588C27.6827 26.6699 27.5532 26.716 27.4191 26.7199C27.2851 26.7239 27.1532 26.6854 27.042 26.6098C26.9307 26.5343 26.8458 26.4256 26.799 26.2989C26.7523 26.1722 26.746 26.034 26.7812 25.9035C26.8031 25.7582 26.8803 25.6272 26.9963 25.5381C27.1124 25.4491 27.2582 25.4091 27.403 25.4265ZM27.9807 23.6192C28.1171 23.5773 28.2635 23.5823 28.3967 23.6335C28.53 23.6847 28.6425 23.7792 28.7166 23.9021C28.7906 24.0249 28.822 24.1691 28.8057 24.3119C28.7894 24.4547 28.7263 24.588 28.6265 24.6906C28.4901 24.7326 28.3437 24.7276 28.2105 24.6764C28.0772 24.6251 27.9647 24.5307 27.8906 24.4078C27.8166 24.285 27.7852 24.1408 27.8015 23.998C27.8178 23.8552 27.8809 23.7219 27.9807 23.6192ZM11.6579 36.8682C11.6016 36.9235 11.5295 36.9596 11.4518 36.9716C11.374 36.9836 11.2945 36.9708 11.2244 36.935C11.1542 36.8991 11.0969 36.8421 11.0605 36.7718C11.0241 36.7016 11.0104 36.6216 11.0214 36.5431C11.0323 36.4646 11.0673 36.3915 11.1215 36.3341C11.1757 36.2766 11.2463 36.2377 11.3235 36.2227C11.4008 36.2078 11.4807 36.2175 11.5522 36.2506C11.6236 36.2837 11.683 36.3384 11.7221 36.4072C11.7726 36.4775 11.7941 36.5648 11.7822 36.6507C11.7702 36.7367 11.7257 36.8146 11.6579 36.8682ZM10.8235 32.9788C10.789 32.8992 10.7865 32.8093 10.8164 32.7279C10.8463 32.6464 10.9064 32.5799 10.984 32.5421C11.0143 32.5085 11.052 32.4823 11.094 32.4657C11.1361 32.4491 11.1814 32.4426 11.2264 32.4465C11.2713 32.4505 11.3148 32.4649 11.3533 32.4886C11.3919 32.5123 11.4244 32.5447 11.4485 32.5832C11.4726 32.6217 11.4875 32.6653 11.4921 32.7105C11.4967 32.7558 11.4908 32.8015 11.475 32.8441C11.4591 32.8867 11.4337 32.9251 11.4007 32.9562C11.3678 32.9872 11.3281 33.0102 11.2848 33.0233C11.2173 33.0777 11.1313 33.1035 11.0452 33.0952C10.9591 33.0869 10.8796 33.0451 10.8235 32.9788ZM10.6149 35.0892C10.504 35.1971 10.3623 35.2672 10.2098 35.2898C10.0573 35.3124 9.90164 35.2863 9.76461 35.2152C9.62757 35.144 9.51607 35.0315 9.44574 34.8932C9.3754 34.755 9.34977 34.5981 9.37243 34.4444C9.39509 34.2907 9.46492 34.1481 9.5721 34.0365C9.67929 33.9248 9.81846 33.8498 9.97009 33.8219C10.1217 33.7941 10.2782 33.8147 10.4176 33.8811C10.557 33.9474 10.6723 34.056 10.7473 34.1917C10.8455 34.3292 10.8866 34.4999 10.8619 34.6675C10.8371 34.8351 10.7486 34.9864 10.6149 35.0892ZM9.34729 32.7847C9.2289 32.8205 9.10231 32.8177 8.98563 32.7766C8.86895 32.7355 8.76817 32.6582 8.69771 32.5558C8.62725 32.4535 8.59073 32.3313 8.59337 32.2067C8.59602 32.0822 8.63769 31.9617 8.71242 31.8625C8.78716 31.7632 8.89113 31.6904 9.00945 31.6543C9.12777 31.6183 9.25436 31.6209 9.37112 31.6618C9.48788 31.7027 9.58881 31.7797 9.65947 31.8819C9.73013 31.9842 9.76688 32.1063 9.76448 32.2308C9.77947 32.365 9.74228 32.4997 9.66074 32.6068C9.5792 32.7138 9.45966 32.7849 9.32723 32.8049L9.34729 32.7847ZM10.659 29.6918C10.7055 29.6647 10.7586 29.6511 10.8123 29.6527C10.8661 29.6543 10.9183 29.671 10.9631 29.7008C11.0079 29.7307 11.0436 29.7725 11.0661 29.8217C11.0886 29.8709 11.0971 29.9254 11.0906 29.9792C11.084 30.0329 11.0627 30.0838 11.0291 30.126C10.9954 30.1682 10.9507 30.2001 10.9001 30.2182C10.8494 30.2362 10.7947 30.2396 10.7422 30.2281C10.6897 30.2165 10.6415 30.1904 10.6029 30.1527C10.5515 30.0834 10.5286 29.9968 10.5391 29.9109C10.5496 29.825 10.5925 29.7465 10.659 29.6918ZM5.63265 26.1663C5.59526 26.2301 5.5412 26.2824 5.47637 26.3173C5.41153 26.3522 5.33841 26.3686 5.265 26.3645C5.19159 26.3604 5.12072 26.336 5.06011 26.294C4.9995 26.2521 4.9515 26.1942 4.92135 26.1266C4.8912 26.059 4.88005 25.9844 4.88914 25.9108C4.89822 25.8373 4.92718 25.7677 4.97285 25.7096C5.01852 25.6516 5.07915 25.6073 5.14811 25.5816C5.21707 25.5559 5.29171 25.5498 5.36387 25.5639C5.47778 25.6092 5.56964 25.6975 5.61986 25.81C5.67007 25.9226 5.67466 26.0504 5.63265 26.1663ZM3.27389 26.5706C2.81256 26.6758 2.33119 26.2715 2.19881 25.6731C2.06643 25.0747 2.32717 24.5006 2.78448 24.3955C3.24179 24.2904 3.72718 24.6947 3.85956 25.293C3.99194 25.8914 3.7312 26.4655 3.27389 26.5706ZM2.47159 22.5276C2.52503 22.4329 2.60379 22.3551 2.6989 22.3033C2.79402 22.2514 2.90167 22.2275 3.00961 22.2343C3.11754 22.241 3.22143 22.2782 3.30945 22.3415C3.39746 22.4048 3.46607 22.4918 3.50746 22.5925C3.54885 22.6932 3.56137 22.8036 3.54358 22.9111C3.52579 23.0186 3.47841 23.1189 3.40684 23.2006C3.33527 23.2823 3.24238 23.3422 3.13873 23.3733C3.03509 23.4044 2.92486 23.4056 2.82059 23.3767C2.66485 23.308 2.54153 23.1813 2.47647 23.023C2.41141 22.8647 2.40966 22.6872 2.47159 22.5276ZM36.4971 25.8793C37.0346 26.1461 36.6616 28.6245 34.7762 28.4506C32.8266 28.2647 33.8054 26.6838 35.422 24.2378C39.3854 18.2542 34.0501 13.3985 29.6775 14.854C28.1588 15.4641 26.7669 16.3555 25.5738 17.482C31.1096 8.40949 27.2827 -0.0242058 19.2316 5.22033e-05H19.0992C18.1004 0.0202672 10.5227 0.719706 10.306 9.29895C10.2138 12.6021 11.7301 14.6883 13.0218 17.5952C14.5743 21.1045 14.2574 24.9615 9.33525 24.3349C10.643 24.0882 11.4854 23.595 12.0069 22.9845C11.3891 22.9279 10.6992 22.5074 10.0613 21.6463C9.19084 20.4698 9.09457 19.9967 8.15186 19.459C4.26071 17.2434 0.273288 21.1571 1.27215 25.4305C2.37531 30.1366 5.86932 30.5085 4.59768 33.1122C3.32604 35.7159 -0.853941 33.7793 1.17587 30.2336C-0.549068 31.681 -0.0837348 34.0785 0.722576 35.2954C1.92602 37.1107 5.84926 37.6161 7.54212 35.1863C6.41087 32.5017 5.19138 27.8118 9.94901 26.8051C15.6092 25.6124 13.9164 25.8308 15.0556 24.727C14.3496 27.6865 10.4585 26.2755 8.84986 28.3051C7.03266 30.5934 8.27221 33.7308 8.33639 33.8885C8.95817 35.2914 10.1656 36.8196 12.0791 38.3358C12.6608 39.019 13.1662 39.8317 13.0018 40.8465C12.7611 42.3343 10.3823 42.3707 10.3141 40.3977C10.1055 41.2063 10.2057 42.7265 11.9187 43.0782C13.6316 43.4299 16.0665 40.9435 15.4287 38.4166C14.7909 35.8897 14.5261 35.635 14.6023 34.1432C14.7468 31.3131 17.8115 29.7969 18.8265 29.7565C13.8402 32.6109 15.6493 44 23.3514 44C29.7698 44 29.3687 36.5285 25.5537 37.0824C23.1468 37.4261 23.1869 39.1039 23.1869 39.1039C23.8325 38.8826 24.525 38.8394 25.1927 38.9786C26.6087 39.4152 26.8254 41.3438 25.293 42.1766C23.4036 43.2035 20.3348 41.368 22.6975 37.0218C22.9181 36.6832 23.1887 36.3806 23.4998 36.1242C22.6093 35.9383 21.3376 35.2752 20.9886 33.0475C20.5474 30.2174 22.2683 27.9372 21.1772 27.8684C21.9434 26.1785 24.2901 25.8146 23.2712 28.0019C22.9061 28.7781 19.2316 33.3588 23.8809 35.7199C27.5394 36.7347 33.1635 32.7443 33.4845 35.9625C33.2397 37.3088 31.8036 37.887 31.1056 37.5797C31.5589 37.8142 33.0312 38.4449 34.2627 37.3573C36.9022 35.0245 35.2495 31.0907 31.0896 31.7578C26.1274 32.5664 25.6821 30.4398 27.9285 28.4466C29.7859 26.797 30.2833 25.0949 29.9583 23.6637C29.9243 23.6226 29.8972 23.5762 29.8781 23.5263C29.3687 21.7271 26.3159 18.6747 21.7268 22.8106C22.3526 22.091 23.9291 20.5789 26.0672 20.2595C27.4191 20.0614 29.1922 20.397 30.183 21.4724C30.881 20.1544 31.7595 20.6638 31.9521 21.4077C32.1727 22.2648 29.144 26.9871 30.9572 28.956C32.7704 30.9249 36.0638 30.2255 37.0868 28.9115C38.4306 27.2135 37.2352 26.1663 36.4931 25.8833L36.4971 25.8793Z" fill="white"/>
</g>
<defs>
<clipPath id="clip0_1531_22292">
<rect width="169" height="44" fill="white"/>
</clipPath>
</defs>
</svg>
