<svg width="30" height="30" viewBox="0 0 30 30" fill="none" xmlns="http://www.w3.org/2000/svg">
<rect width="30" height="30" rx="15" fill="#2E5599"/>
<path d="M19.96 15.6667C19.8133 15.6667 19.66 15.6201 19.5133 15.5867C19.2163 15.5213 18.9245 15.4344 18.64 15.3267C18.3307 15.2142 17.9908 15.2201 17.6855 15.3431C17.3803 15.4662 17.1314 15.6978 16.9867 15.9934L16.84 16.2934C16.1907 15.9322 15.594 15.4836 15.0667 14.9601C14.5432 14.4328 14.0946 13.8361 13.7333 13.1867L14.0133 13.0001C14.3089 12.8554 14.5405 12.6064 14.6636 12.3012C14.7867 11.996 14.7925 11.656 14.68 11.3467C14.5742 11.0617 14.4873 10.7699 14.42 10.4734C14.3867 10.3267 14.36 10.1734 14.34 10.0201C14.259 9.55049 14.0131 9.12524 13.6464 8.8209C13.2798 8.51657 12.8165 8.35315 12.34 8.36007H10.34C10.0527 8.35738 9.76817 8.41662 9.50581 8.53376C9.24345 8.65091 9.00941 8.82321 8.81963 9.03893C8.62984 9.25465 8.48876 9.50874 8.406 9.78388C8.32323 10.059 8.30073 10.3488 8.34001 10.6334C8.69516 13.4263 9.97069 16.0213 11.9651 18.0085C13.9595 19.9957 16.5591 21.2617 19.3533 21.6067H19.6067C20.0983 21.6075 20.5729 21.4271 20.94 21.1001C21.1509 20.9114 21.3194 20.6802 21.4343 20.4216C21.5492 20.163 21.608 19.883 21.6067 19.6001V17.6001C21.5985 17.137 21.4299 16.6911 21.1296 16.3385C20.8293 15.9859 20.4159 15.7485 19.96 15.6667ZM20.2933 19.6667C20.2932 19.7614 20.2729 19.8549 20.2339 19.9412C20.1948 20.0274 20.1378 20.1043 20.0667 20.1667C19.9922 20.2311 19.9051 20.2791 19.8109 20.3078C19.7168 20.3365 19.6177 20.3452 19.52 20.3334C17.0233 20.0133 14.7042 18.8711 12.9285 17.0869C11.1528 15.3028 10.0216 12.9783 9.71334 10.4801C9.70273 10.3824 9.71203 10.2836 9.74067 10.1897C9.76932 10.0957 9.81672 10.0085 9.88001 9.93341C9.94248 9.8623 10.0194 9.8053 10.1056 9.76622C10.1918 9.72714 10.2853 9.70686 10.38 9.70674H12.38C12.535 9.70329 12.6864 9.75399 12.8081 9.85012C12.9298 9.94625 13.0141 10.0818 13.0467 10.2334C13.0733 10.4156 13.1067 10.5956 13.1467 10.7734C13.2237 11.1248 13.3262 11.4702 13.4533 11.8067L12.52 12.2401C12.4402 12.2767 12.3684 12.3287 12.3088 12.3931C12.2491 12.4576 12.2028 12.5332 12.1725 12.6155C12.1421 12.6979 12.1283 12.7855 12.1319 12.8732C12.1355 12.9609 12.1564 13.0471 12.1933 13.1267C13.1528 15.1819 14.8048 16.8339 16.86 17.7934C17.0223 17.8601 17.2044 17.8601 17.3667 17.7934C17.4498 17.7637 17.5262 17.7177 17.5915 17.6582C17.6567 17.5987 17.7094 17.5268 17.7467 17.4467L18.16 16.5134C18.5047 16.6367 18.8564 16.7391 19.2133 16.8201C19.3911 16.8601 19.5711 16.8934 19.7533 16.9201C19.905 16.9526 20.0405 17.037 20.1366 17.1586C20.2328 17.2803 20.2835 17.4317 20.28 17.5867L20.2933 19.6667Z" fill="white"/>
</svg>
