<svg width="100%" viewBox="0 0 30 30" fill="none" xmlns="http://www.w3.org/2000/svg">
    <rect width="30" height="30" rx="15" fill="#2E5599"/>
    <path d="M21.8073 20.1936L19.3339 17.7403C20.294 16.5432 20.7589 15.0238 20.6331 13.4945C20.5073 11.9651 19.8004 10.5421 18.6576 9.51802C17.5148 8.49393 16.0231 7.9466 14.4892 7.98858C12.9553 8.03055 11.4957 8.65864 10.4107 9.74369C9.32563 10.8287 8.69754 12.2883 8.65557 13.8222C8.61359 15.3561 9.16092 16.8478 10.185 17.9906C11.2091 19.1334 12.6321 19.8403 14.1615 19.9661C15.6908 20.0919 17.2102 19.627 18.4073 18.6669L20.8606 21.1203C20.9226 21.1827 20.9963 21.2323 21.0775 21.2662C21.1588 21.3 21.2459 21.3175 21.3339 21.3175C21.4219 21.3175 21.5091 21.3 21.5903 21.2662C21.6715 21.2323 21.7453 21.1827 21.8073 21.1203C21.9274 20.996 21.9946 20.8298 21.9946 20.6569C21.9946 20.484 21.9274 20.3179 21.8073 20.1936ZM14.6673 18.6669C13.7443 18.6669 12.842 18.3932 12.0746 17.8805C11.3072 17.3677 10.709 16.6388 10.3558 15.7861C10.0026 14.9334 9.91019 13.9951 10.0903 13.0898C10.2703 12.1846 10.7148 11.3531 11.3674 10.7004C12.0201 10.0478 12.8516 9.60333 13.7568 9.42326C14.6621 9.2432 15.6004 9.33562 16.4531 9.68882C17.3058 10.042 18.0347 10.6402 18.5474 11.4076C19.0602 12.175 19.3339 13.0773 19.3339 14.0003C19.3339 15.2379 18.8423 16.4249 17.9671 17.3001C17.0919 18.1753 15.9049 18.6669 14.6673 18.6669Z" fill="white"/>
</svg>
