<svg width="273" height="48" viewBox="0 0 273 48" fill="none" xmlns="http://www.w3.org/2000/svg">
<path d="M107.675 37.2934C107.687 37.3219 107.691 37.353 107.689 37.3839C107.686 37.4148 107.676 37.4445 107.659 37.4703C107.642 37.4961 107.619 37.5172 107.592 37.5317C107.566 37.5462 107.536 37.5537 107.506 37.5534H105.341C104.843 37.5657 104.353 37.4242 103.935 37.1472C103.516 36.8702 103.189 36.4705 102.995 36.0001L101.09 31.4867H91.3077C91.2576 31.4869 91.2083 31.4741 91.1643 31.4496C91.1203 31.4251 91.083 31.3896 91.0559 31.3465C91.0287 31.3034 91.0125 31.2539 91.0088 31.2027C91.0051 31.1515 91.014 31.1002 91.0347 31.0534L91.8862 28.9601C91.9941 28.5763 92.2273 28.2423 92.5469 28.0141C92.8665 27.7859 93.2528 27.6773 93.6412 27.7067H99.4912L94.6097 16.1934C94.3793 15.7616 94.2545 15.2789 94.2457 14.7867H94.1872C94.189 15.2778 94.0705 15.7615 93.8427 16.1934L85.4382 36.0001C85.2472 36.4667 84.9223 36.8626 84.5067 37.1353C84.091 37.408 83.6043 37.5445 83.1112 37.5267H80.9467C80.917 37.5259 80.888 37.5177 80.8621 37.5027C80.8362 37.4878 80.8143 37.4665 80.7983 37.4409C80.7823 37.4152 80.7726 37.386 80.7702 37.3556C80.7677 37.3253 80.7725 37.2948 80.7842 37.2667L92.5232 9.70008C92.5354 9.66617 92.5576 9.63702 92.5867 9.6167C92.6159 9.59638 92.6505 9.5859 92.6857 9.58675H95.7667C95.8026 9.58641 95.8378 9.597 95.8679 9.61717C95.898 9.63734 95.9216 9.66619 95.9357 9.70008L107.675 37.2934ZM127.48 37.5534H124.152C124.129 37.5534 124.105 37.5486 124.084 37.5391C124.062 37.5296 124.042 37.5158 124.026 37.4984C124.009 37.4809 123.997 37.4603 123.988 37.4377C123.98 37.4151 123.976 37.3909 123.977 37.3667V21.1267H118.172L116.801 32.1401C116.014 35.9734 115.176 37.7467 112.01 37.7467C111.263 37.7646 110.517 37.6748 109.794 37.4801V36.1467C109.794 34.8801 110.314 34.2534 110.847 34.2401H111.497C112.277 34.2067 112.647 33.6534 113.135 31.8867L115.052 18.9334C115.124 18.5705 115.316 18.2441 115.596 18.0097C115.875 17.7752 116.225 17.647 116.586 17.6467H127.467C127.515 17.6484 127.56 17.6686 127.594 17.7033C127.628 17.7379 127.648 17.7844 127.649 17.8334V37.3667C127.649 37.414 127.632 37.4596 127.601 37.4942C127.569 37.5289 127.526 37.55 127.48 37.5534ZM135.755 18.8867V24.8867H140.792C144.692 24.8867 147.578 27.5067 147.578 31.2067C147.578 34.9067 144.66 37.5601 140.792 37.5601H132.258C132.234 37.5601 132.21 37.5553 132.188 37.5459C132.166 37.5365 132.146 37.5227 132.129 37.5054C132.112 37.4881 132.099 37.4675 132.09 37.4448C132.08 37.4222 132.076 37.3979 132.076 37.3734V17.8334C132.077 17.7844 132.097 17.7379 132.131 17.7033C132.165 17.6686 132.21 17.6484 132.258 17.6467H134.552C134.71 17.6459 134.866 17.6769 135.012 17.7382C135.158 17.7995 135.29 17.8897 135.402 18.0037C135.514 18.1177 135.603 18.2532 135.663 18.4024C135.724 18.5517 135.755 18.7118 135.755 18.8734V18.8867ZM135.755 33.9067H140.558C142.508 33.9067 143.899 33.1067 143.899 31.2401C143.899 29.3734 142.547 28.4801 140.558 28.4801H135.755V33.9067ZM162.899 37.8601V43.0467C162.899 43.4234 162.753 43.7845 162.493 44.0508C162.234 44.3171 161.881 44.4667 161.514 44.4667H159.402C159.353 44.4667 159.307 44.4471 159.273 44.4121C159.239 44.3771 159.22 44.3296 159.22 44.2801V37.8267C154.02 37.2601 150.393 33.1601 150.393 27.6201C150.393 22.0801 154.013 17.9601 159.252 17.3934V10.0001C159.254 9.62401 159.4 9.26385 159.66 8.99792C159.919 8.732 160.27 8.58183 160.637 8.58008H162.756C162.803 8.58181 162.847 8.60223 162.88 8.63705C162.913 8.67188 162.931 8.71837 162.931 8.76674V17.3734C168.131 17.9601 171.758 22.0401 171.758 27.6201C171.758 33.2001 168.105 37.2601 162.899 37.8467V37.8601ZM159.252 34.0001V21.2067C157.77 21.4363 156.421 22.2163 155.462 23.3986C154.504 24.581 154.002 26.0832 154.052 27.6201C154.006 29.1524 154.51 30.6488 155.468 31.825C156.427 33.0012 157.774 33.7753 159.252 34.0001ZM168.079 27.6067C168.14 26.0757 167.648 24.5753 166.699 23.3923C165.749 22.2093 164.408 21.4265 162.931 21.1934V34.0001C164.398 33.7643 165.729 32.9843 166.672 31.8082C167.615 30.632 168.104 29.1417 168.047 27.6201L168.079 27.6067ZM215.477 17.6867C215.507 17.6865 215.537 17.6939 215.564 17.7084C215.591 17.7229 215.614 17.7441 215.63 17.7699C215.647 17.7957 215.657 17.8254 215.66 17.8562C215.663 17.8871 215.658 17.9182 215.646 17.9467L207.274 37.6001L204.915 43.1401C204.723 43.61 204.395 44.0082 203.975 44.2812C203.556 44.5541 203.065 44.6887 202.568 44.6667H200.54C200.511 44.6659 200.481 44.6577 200.456 44.6427C200.43 44.6278 200.408 44.6065 200.392 44.5809C200.376 44.5552 200.366 44.526 200.364 44.4956C200.361 44.4653 200.366 44.4347 200.378 44.4067L203.732 36.8867L195.717 17.9601C195.705 17.9316 195.701 17.9005 195.703 17.8696C195.706 17.8387 195.716 17.809 195.733 17.7832C195.75 17.7574 195.773 17.7363 195.799 17.7218C195.826 17.7073 195.856 17.6998 195.886 17.7001H197.934C198.43 17.6737 198.922 17.8057 199.342 18.0779C199.762 18.3501 200.09 18.7491 200.28 19.2201L205.259 31.8867C205.45 32.5849 205.409 33.3286 205.142 34.0001H205.201C205.475 33.4356 205.716 32.8545 205.922 32.2601L211.051 19.2534C211.244 18.7848 211.572 18.3879 211.992 18.1162C212.411 17.8445 212.902 17.7109 213.397 17.7334L215.477 17.6867ZM216.368 27.5867C216.368 21.5867 220.58 17.2801 226.475 17.2801C228.659 17.2801 231.675 18.2201 233.3 20.0067C233.324 20.0407 233.337 20.0816 233.337 20.1234C233.337 20.1653 233.324 20.2061 233.3 20.2401L232.559 21.4067C232.263 21.8647 231.804 22.185 231.28 22.2985C230.755 22.412 230.209 22.3096 229.758 22.0134C228.748 21.4319 227.619 21.103 226.462 21.0534C225.614 21.0172 224.767 21.1609 223.975 21.4757C223.183 21.7904 222.462 22.2693 221.859 22.8825C221.256 23.4957 220.782 24.23 220.468 25.0394C220.154 25.8488 220.006 26.716 220.034 27.5867C220.009 28.4558 220.159 29.3208 220.474 30.1279C220.789 30.9349 221.263 31.6668 221.866 32.2778C222.469 32.8888 223.189 33.3659 223.979 33.6795C224.77 33.993 225.615 34.1361 226.462 34.1001C227.63 34.0465 228.767 33.7034 229.777 33.1001C230.229 32.8073 230.775 32.707 231.298 32.8202C231.821 32.9335 232.281 33.2516 232.579 33.7067L233.32 34.8534C233.344 34.887 233.358 34.928 233.358 34.9701C233.358 35.0122 233.344 35.0532 233.32 35.0867C231.467 36.8706 229.023 37.8666 226.482 37.8734C220.547 37.8867 216.335 33.5867 216.335 27.6001L216.368 27.5867ZM194.547 27.0201C194.547 21.1534 190.537 17.3001 185.012 17.3001C179.253 17.3001 175.099 21.6201 175.099 27.6067C175.099 33.5934 179.311 37.8934 185.2 37.8934C187.709 37.8965 190.123 36.9136 191.947 35.1467C191.975 35.1121 191.991 35.0684 191.991 35.0234C191.991 34.9784 191.975 34.9348 191.947 34.9001L191.102 33.6401C190.782 33.2353 190.328 32.9645 189.826 32.8786C189.325 32.7927 188.81 32.8975 188.379 33.1734C187.432 33.8092 186.325 34.1496 185.194 34.1534C183.897 34.1998 182.617 33.8425 181.521 33.1286C180.426 32.4146 179.567 31.3774 179.058 30.1534L179.019 30.0401C178.967 29.8934 178.915 29.7401 178.869 29.5867C178.824 29.4334 178.817 29.4067 178.798 29.3134L178.759 29.1401C178.566 28.2187 178.55 27.2675 178.713 26.3401C178.776 25.979 178.869 25.6243 178.993 25.2801V25.2067C179.449 23.9651 180.272 22.9003 181.346 22.1607C182.42 21.421 183.692 21.0433 184.986 21.0801C187.924 21.0801 190.283 22.7867 190.875 25.6401H184.31C183.947 25.6058 183.584 25.7012 183.282 25.9102C182.979 26.1192 182.757 26.4289 182.652 26.7867L181.872 28.7001C181.854 28.7471 181.848 28.7979 181.853 28.8481C181.859 28.8982 181.876 28.9463 181.903 28.9882C181.931 29.0301 181.968 29.0646 182.011 29.0887C182.054 29.1128 182.103 29.1259 182.152 29.1267H192.604C192.867 29.1294 193.127 29.076 193.369 28.9699C193.61 28.8638 193.828 28.7075 194.008 28.5107C194.187 28.3139 194.325 28.0809 194.412 27.8267C194.5 27.5724 194.535 27.3022 194.515 27.0334L194.547 27.0201Z" fill="#0B2330"/>
<path opacity="0.2" d="M66.6344 1.00008C66.6344 0.815986 66.4889 0.666748 66.3094 0.666748C66.1299 0.666748 65.9844 0.815986 65.9844 1.00008V47.0001C65.9844 47.1842 66.1299 47.3334 66.3094 47.3334C66.4889 47.3334 66.6344 47.1842 66.6344 47.0001V1.00008Z" fill="black"/>
<path d="M44.0324 24.0401C44.0222 24.0097 44.0219 23.9767 44.0317 23.9462C44.0415 23.9156 44.0608 23.8892 44.0867 23.8711C44.1125 23.8529 44.1435 23.8439 44.1748 23.8455C44.2061 23.8472 44.236 23.8593 44.2599 23.8801C51.4099 31.9334 50.9549 37.2134 49.9604 39.3201C47.172 45.2334 36.9605 46.5934 25.7675 47.1601C14.5745 47.7267 3.43996 47.1268 1.02846 41.3334C-0.577042 37.1934 3.21246 27.9001 7.56096 20.3067C11.9095 12.7134 18.9035 0.666748 24.643 0.666748C30.2005 0.666748 35.277 10.3201 38.553 18.1001C41.335 24.1001 43.883 31.7067 41.738 35.0267C40.23 37.4868 32.9825 39.1601 25.3775 39.1601C22.1665 39.3268 12.917 39.1601 11.1815 36.4067C9.58246 33.8601 12.631 27.0734 14.4835 23.8001C16.336 20.5267 21.6335 11.0001 24.8445 11.0001C28.0555 11.0001 30.584 17.8934 31.5525 20.1067C32.4365 22.1067 34.6855 28.4667 33.6 30.3334C32.5145 32.2001 28.2505 32.1734 26.5735 32.2601C24.8965 32.3467 20.8275 32.3867 19.8135 31.1667C18.949 30.1267 19.2805 26.9934 23.3105 21.3134C23.3307 21.2863 23.3598 21.2677 23.3925 21.261C23.4251 21.2544 23.459 21.2603 23.4877 21.2774C23.5165 21.2946 23.5381 21.322 23.5485 21.3544C23.559 21.3868 23.5575 21.422 23.5445 21.4534C22.433 24.2601 21.6595 27.4067 21.913 28.7867C21.9447 28.9413 22.0066 29.0877 22.0948 29.2171C22.183 29.3466 22.2958 29.4564 22.4265 29.5401C23.1415 30.0201 24.8445 30.0667 26.4825 29.9801C28.8225 29.8734 30.4735 29.8067 31.0325 28.7067C31.624 27.7267 30.6035 24.1467 29.4595 21.2267C29.0435 20.1801 26.944 14.3601 24.8575 14.3601C22.9725 14.3601 18.546 21.6934 17.116 24.8067C15.855 27.5734 13.593 32.1401 15.062 34.0801C16.518 35.8667 22.4525 35.9134 25.228 35.7734C29.037 35.5734 34.497 35.5134 37.2465 33.4467C37.7425 33.1032 38.104 32.5907 38.267 32.0001C38.917 29.3334 36.798 23.2734 35.017 19.0734C33.405 15.0734 28.855 4.80675 24.617 4.80675C20.379 4.80675 12.462 19.1334 10.655 22.7001C9.10146 25.8267 5.29896 33.6401 5.70196 37.9201C5.76978 38.4715 5.95156 39.0018 6.23515 39.4755C6.51874 39.9491 6.89761 40.3553 7.34646 40.6667C10.9345 43.2668 18.6825 43.6534 25.579 43.3334C33.379 42.9334 43.8179 41.7934 46.1644 37.9001C47.8089 35.1601 47.8414 32.1601 44.0324 24.0401Z" fill="#F15F43"/>
</svg>
