<svg width="30" height="30" viewBox="0 0 30 30" fill="none" xmlns="http://www.w3.org/2000/svg">
<path d="M23.75 5H6.25C5.25544 5 4.30161 5.39509 3.59835 6.09835C2.89509 6.80161 2.5 7.75544 2.5 8.75V21.25C2.5 22.2446 2.89509 23.1984 3.59835 23.9017C4.30161 24.6049 5.25544 25 6.25 25H23.75C24.7446 25 25.6984 24.6049 26.4017 23.9017C27.1049 23.1984 27.5 22.2446 27.5 21.25V8.75C27.5 7.75544 27.1049 6.80161 26.4017 6.09835C25.6984 5.39509 24.7446 5 23.75 5ZM6.25 7.5H23.75C24.0815 7.5 24.3995 7.6317 24.6339 7.86612C24.8683 8.10054 25 8.41848 25 8.75L15 14.85L5 8.75C5 8.41848 5.1317 8.10054 5.36612 7.86612C5.60054 7.6317 5.91848 7.5 6.25 7.5ZM25 21.25C25 21.5815 24.8683 21.8995 24.6339 22.1339C24.3995 22.3683 24.0815 22.5 23.75 22.5H6.25C5.91848 22.5 5.60054 22.3683 5.36612 22.1339C5.1317 21.8995 5 21.5815 5 21.25V11.6L14.35 17.3125C14.54 17.4222 14.7556 17.48 14.975 17.48C15.1944 17.48 15.41 17.4222 15.6 17.3125L25 11.6V21.25Z" fill="#2E5599"/>
</svg>
