<svg width="30" height="30" viewBox="0 0 30 30" fill="none" xmlns="http://www.w3.org/2000/svg">
<path d="M22.5011 5.59977C20.512 3.61064 17.8142 2.49316 15.0011 2.49316C12.1881 2.49316 9.49026 3.61064 7.50113 5.59977C5.51201 7.58889 4.39453 10.2867 4.39453 13.0998C4.39453 15.9128 5.51201 18.6106 7.50113 20.5998L14.0886 27.1998C14.2048 27.3169 14.3431 27.4099 14.4954 27.4734C14.6477 27.5368 14.8111 27.5695 14.9761 27.5695C15.1411 27.5695 15.3045 27.5368 15.4569 27.4734C15.6092 27.4099 15.7474 27.3169 15.8636 27.1998L22.5011 20.5373C24.4819 18.5564 25.5948 15.8698 25.5948 13.0685C25.5948 10.2672 24.4819 7.58061 22.5011 5.59977V5.59977ZM20.7136 18.7498L15.0011 24.4873L9.28863 18.7498C8.16006 17.6202 7.39173 16.1813 7.08075 14.6151C6.76977 13.0489 6.93012 11.4257 7.54151 9.95062C8.15291 8.47553 9.1879 7.21483 10.5157 6.32786C11.8434 5.4409 13.4044 4.96749 15.0011 4.96749C16.5979 4.96749 18.1588 5.4409 19.4866 6.32786C20.8144 7.21483 21.8494 8.47553 22.4608 9.95062C23.0721 11.4257 23.2325 13.0489 22.9215 14.6151C22.6105 16.1813 21.8422 17.6202 20.7136 18.7498V18.7498ZM11.2511 9.26227C10.242 10.2745 9.67538 11.6455 9.67538 13.0748C9.67538 14.5041 10.242 15.8751 11.2511 16.8873C12.0008 17.6383 12.9556 18.1511 13.9957 18.3615C15.0358 18.5719 16.1148 18.4705 17.0975 18.07C18.0801 17.6694 18.9226 16.9876 19.5192 16.1101C20.1159 15.2325 20.44 14.1984 20.4511 13.1373C20.4568 12.4288 20.3203 11.7263 20.0498 11.0715C19.7792 10.4167 19.3802 9.82271 18.8761 9.32477C18.3807 8.81799 17.79 8.41419 17.1379 8.1366C16.4858 7.85901 15.7853 7.71311 15.0766 7.7073C14.368 7.70149 13.6651 7.83589 13.0086 8.10275C12.3521 8.36961 11.7548 8.76368 11.2511 9.26227V9.26227ZM17.1136 15.1123C16.6399 15.5932 16.0139 15.8946 15.3425 15.9651C14.6712 16.0355 13.9962 15.8706 13.433 15.4984C12.8698 15.1263 12.4534 14.5701 12.2549 13.9249C12.0564 13.2797 12.0882 12.5856 12.3448 11.9612C12.6015 11.3369 13.067 10.821 13.6619 10.5019C14.2567 10.1828 14.9439 10.0803 15.6061 10.2118C16.2682 10.3433 16.864 10.7007 17.2918 11.2229C17.7195 11.7451 17.9526 12.3997 17.9511 13.0748C17.9329 13.8464 17.6092 14.5792 17.0511 15.1123H17.1136Z" fill="#2E5599"/>
</svg>
