<svg xmlns="http://www.w3.org/2000/svg" width="30" height="30" viewBox="0 0 30 30" fill="none">
<path d="M22.5011 5.60001C20.512 3.61089 17.8142 2.49341 15.0011 2.49341C12.1881 2.49341 9.49026 3.61089 7.50113 5.60001C5.51201 7.58913 4.39453 10.287 4.39453 13.1C4.39453 15.9131 5.51201 18.6109 7.50113 20.6L14.0886 27.2C14.2048 27.3172 14.3431 27.4102 14.4954 27.4736C14.6477 27.5371 14.8111 27.5698 14.9761 27.5698C15.1411 27.5698 15.3045 27.5371 15.4569 27.4736C15.6092 27.4102 15.7474 27.3172 15.8636 27.2L22.5011 20.5375C24.4819 18.5567 25.5948 15.8701 25.5948 13.0688C25.5948 10.2674 24.4819 7.58086 22.5011 5.60001V5.60001ZM20.7136 18.75L15.0011 24.4875L9.28863 18.75C8.16006 17.6204 7.39173 16.1816 7.08075 14.6154C6.76977 13.0492 6.93012 11.4259 7.54151 9.95086C8.15291 8.47578 9.1879 7.21507 10.5157 6.32811C11.8434 5.44114 13.4044 4.96774 15.0011 4.96774C16.5979 4.96774 18.1588 5.44114 19.4866 6.32811C20.8144 7.21507 21.8494 8.47578 22.4608 9.95086C23.0721 11.4259 23.2325 13.0492 22.9215 14.6154C22.6105 16.1816 21.8422 17.6204 20.7136 18.75V18.75ZM11.2511 9.26251C10.242 10.2747 9.67538 11.6457 9.67538 13.075C9.67538 14.5043 10.242 15.8753 11.2511 16.8875C12.0008 17.6385 12.9556 18.1514 13.9957 18.3618C15.0358 18.5722 16.1148 18.4707 17.0975 18.0702C18.0801 17.6697 18.9226 16.9879 19.5192 16.1103C20.1159 15.2328 20.44 14.1986 20.4511 13.1375C20.4568 12.429 20.3203 11.7266 20.0498 11.0717C19.7792 10.4169 19.3802 9.82295 18.8761 9.32501C18.3807 8.81823 17.79 8.41443 17.1379 8.13684C16.4858 7.85925 15.7853 7.71335 15.0766 7.70755C14.368 7.70174 13.6651 7.83613 13.0086 8.103C12.3521 8.36986 11.7548 8.76392 11.2511 9.26251V9.26251ZM17.1136 15.1125C16.6399 15.5934 16.0139 15.8949 15.3425 15.9653C14.6712 16.0358 13.9962 15.8708 13.433 15.4987C12.8698 15.1265 12.4534 14.5703 12.2549 13.9251C12.0564 13.2799 12.0882 12.5858 12.3448 11.9615C12.6015 11.3371 13.067 10.8213 13.6619 10.5022C14.2567 10.1831 14.9439 10.0805 15.6061 10.212C16.2682 10.3435 16.864 10.701 17.2918 11.2232C17.7195 11.7454 17.9526 12.4 17.9511 13.075C17.9329 13.8466 17.6092 14.5794 17.0511 15.1125H17.1136Z" fill="#2E5599"/>
</svg>