<svg width="30" height="30" viewBox="0 0 30 30" fill="none" xmlns="http://www.w3.org/2000/svg">
<path d="M24.2993 16.2502C24.0243 16.2502 23.7368 16.1627 23.4618 16.1002C22.9049 15.9775 22.3576 15.8146 21.8243 15.6127C21.2444 15.4017 20.607 15.4127 20.0347 15.6435C19.4624 15.8742 18.9956 16.3085 18.7243 16.8627L18.4493 17.4252C17.2318 16.7479 16.113 15.9067 15.1243 14.9252C14.1427 13.9365 13.3015 12.8177 12.6243 11.6002L13.1493 11.2502C13.7035 10.9788 14.1377 10.5121 14.3685 9.93982C14.5993 9.36752 14.6102 8.73009 14.3993 8.1502C14.2008 7.61573 14.0379 7.0687 13.9118 6.5127C13.8493 6.2377 13.7993 5.9502 13.7618 5.6627C13.61 4.78223 13.1488 3.98488 12.4613 3.41425C11.7738 2.84362 10.9051 2.53721 10.0118 2.5502H6.26177C5.72306 2.54514 5.18958 2.65622 4.69766 2.87586C4.20573 3.09551 3.76691 3.41857 3.41106 3.82305C3.05521 4.22754 2.79069 4.70394 2.63551 5.21984C2.48032 5.73574 2.43812 6.27902 2.51177 6.8127C3.17769 12.0494 5.56931 16.915 9.30884 20.641C13.0484 24.3669 17.9227 26.7408 23.1618 27.3877H23.6368C24.5585 27.3891 25.4485 27.0509 26.1368 26.4377C26.5322 26.084 26.8481 25.6504 27.0636 25.1656C27.2791 24.6808 27.3892 24.1557 27.3868 23.6252V19.8752C27.3715 19.0069 27.0553 18.1709 26.4922 17.5098C25.9291 16.8487 25.154 16.4035 24.2993 16.2502ZM24.9243 23.7502C24.924 23.9277 24.886 24.1031 24.8127 24.2647C24.7395 24.4264 24.6326 24.5706 24.4993 24.6877C24.3596 24.8083 24.1963 24.8984 24.0198 24.9522C23.8433 25.006 23.6575 25.0224 23.4743 25.0002C18.7929 24.4 14.4446 22.2583 11.1152 18.9131C7.78577 15.5678 5.66478 11.2094 5.08677 6.5252C5.06688 6.3421 5.08431 6.15686 5.13802 5.98069C5.19174 5.80452 5.28061 5.64106 5.39927 5.5002C5.51641 5.36687 5.6606 5.26 5.82224 5.18672C5.98389 5.11344 6.15929 5.07543 6.33677 5.0752H10.0868C10.3775 5.06873 10.6613 5.1638 10.8895 5.34404C11.1176 5.52428 11.2758 5.77841 11.3368 6.0627C11.3868 6.40437 11.4493 6.74187 11.5243 7.0752C11.6687 7.73413 11.8608 8.38168 12.0993 9.0127L10.3493 9.8252C10.1996 9.89385 10.065 9.99138 9.95322 10.1122C9.84139 10.233 9.75452 10.3747 9.69761 10.5292C9.6407 10.6837 9.61486 10.8479 9.62158 11.0124C9.6283 11.1768 9.66745 11.3384 9.73677 11.4877C11.5358 15.3411 14.6333 18.4387 18.4868 20.2377C18.7911 20.3627 19.1324 20.3627 19.4368 20.2377C19.5927 20.1819 19.7359 20.0958 19.8582 19.9842C19.9805 19.8726 20.0795 19.7378 20.1493 19.5877L20.9243 17.8377C21.5705 18.0688 22.23 18.2608 22.8993 18.4127C23.2326 18.4877 23.5701 18.5502 23.9118 18.6002C24.1961 18.6612 24.4502 18.8194 24.6304 19.0475C24.8107 19.2757 24.9057 19.5595 24.8993 19.8502L24.9243 23.7502Z" fill="#2E5599"/>
</svg>
