<svg width="24" height="24" viewBox="0 0 24 24" fill="none" xmlns="http://www.w3.org/2000/svg">
<path d="M12 2C6.47714 2 2 6.47714 2 12C2 17.5229 6.47714 22 12 22C17.5229 22 22 17.5229 22 12C22 6.47714 17.5229 2 12 2ZM3.28167 12.625H5.42624C5.47396 13.6627 5.63078 14.6121 5.87433 15.4647H3.96865C3.58706 14.5836 3.35298 13.6269 3.28167 12.625ZM15.0849 11.375C15.0379 10.3704 14.9188 9.41882 14.7576 8.53535H16.8062C17.0789 9.37388 17.2661 10.3194 17.3225 11.375H15.0849ZM10.4237 15.4647C10.2473 14.4907 10.1607 13.54 10.1447 12.625H13.8554C13.8394 13.54 13.7528 14.4907 13.5763 15.4647H10.4237ZM13.304 16.7147C13.0109 17.8397 12.5867 18.9865 11.9999 20.1358C11.4131 18.9865 10.989 17.8397 10.696 16.7147H13.304ZM10.1617 11.375C10.2112 10.3647 10.3389 9.41257 10.5086 8.53535H13.4914C13.6611 9.41257 13.7888 10.3647 13.8384 11.375H10.1617ZM10.7895 7.28539C11.1801 5.76053 11.6627 4.55743 11.9999 3.81669C12.3372 4.55743 12.8198 5.76053 13.2105 7.28539H10.7895ZM14.4927 7.28539C14.0939 5.63286 13.5818 4.30539 13.2018 3.44743C13.6741 3.78355 15.2435 5.02592 16.314 7.28539H14.4927ZM10.7981 3.44735C10.418 4.30531 9.90604 5.63282 9.50731 7.28539H7.68575C8.75641 5.02571 10.3259 3.78335 10.7981 3.44735ZM9.24245 8.53539C9.08122 9.41886 8.96216 10.3704 8.91514 11.3751H6.67727C6.73371 10.3195 6.92086 9.37392 7.19359 8.53539H9.24245ZM5.42759 11.375H3.28167C3.35298 10.3732 3.58702 9.41649 3.96861 8.53535H5.88298C5.63763 9.38784 5.47771 10.3366 5.42759 11.375ZM6.67661 12.625H8.898C8.9122 13.5415 8.98931 14.491 9.15273 15.4647H7.19424C6.91922 14.624 6.73143 13.6782 6.67661 12.625ZM9.41159 16.7147C9.7182 17.9875 10.1736 19.2883 10.8297 20.5944C10.387 20.2774 8.77755 19.0115 7.68633 16.7147H9.41159ZM13.1688 20.5972C13.8257 19.2902 14.2815 17.9884 14.5884 16.7147H16.3262C15.2382 19.0232 13.6219 20.2787 13.1688 20.5972ZM14.8473 15.4647C15.0108 14.491 15.0879 13.5415 15.102 12.625H17.3238C17.2701 13.6801 17.0853 14.6257 16.8143 15.4647H14.8473ZM18.5735 12.625H20.7183C20.647 13.6269 20.4129 14.5836 20.0313 15.4647H18.1255C18.369 14.6121 18.5258 13.6627 18.5735 12.625ZM18.5722 11.375C18.5221 10.3365 18.3622 9.38784 18.1168 8.53535H20.0314C20.4131 9.41645 20.6471 10.3731 20.7184 11.375H18.5722ZM19.3596 7.28539H17.6762C17.1175 5.93951 16.3891 4.87486 15.7036 4.08392C17.2031 4.78841 18.4701 5.90188 19.3596 7.28539ZM8.296 4.08408C7.61061 4.87502 6.88229 5.93963 6.32359 7.28539H4.64045C5.5298 5.90196 6.79673 4.78861 8.296 4.08408ZM4.64049 16.7147H6.31343C6.86371 18.0468 7.58184 19.1079 8.26249 19.8998C6.77792 19.1944 5.52318 18.0877 4.64049 16.7147ZM15.7378 19.8996C16.4183 19.1078 17.1363 18.0467 17.6864 16.7147H19.3595C18.4769 18.0876 17.2222 19.1942 15.7378 19.8996Z" fill="#2E5599"/>
</svg>
