<svg width="30" height="30" viewBox="0 0 30 30" fill="none" xmlns="http://www.w3.org/2000/svg">
<path d="M13.75 2.5C11.2777 2.5 8.86099 3.23311 6.80538 4.60663C4.74976 5.98015 3.14761 7.93238 2.20151 10.2165C1.25542 12.5005 1.00787 15.0139 1.49019 17.4386C1.9725 19.8634 3.16301 22.0907 4.91117 23.8388C6.65933 25.587 8.88661 26.7775 11.3114 27.2598C13.7361 27.7421 16.2495 27.4946 18.5335 26.5485C20.8176 25.6024 22.7699 24.0002 24.1434 21.9446C25.5169 19.889 26.25 17.4723 26.25 15C26.25 13.3585 25.9267 11.733 25.2985 10.2165C24.6703 8.69989 23.7496 7.3219 22.5888 6.16117C21.4281 5.00043 20.0501 4.07969 18.5335 3.45151C17.017 2.82332 15.3915 2.5 13.75 2.5V2.5ZM13.75 25C11.7722 25 9.83879 24.4135 8.1943 23.3147C6.54981 22.2159 5.26809 20.6541 4.51121 18.8268C3.75433 16.9996 3.5563 14.9889 3.94215 13.0491C4.32801 11.1093 5.28041 9.32746 6.67894 7.92893C8.07746 6.53041 9.85929 5.578 11.7991 5.19215C13.7389 4.8063 15.7496 5.00433 17.5768 5.7612C19.4041 6.51808 20.9659 7.79981 22.0647 9.4443C23.1635 11.0888 23.75 13.0222 23.75 15C23.75 17.6522 22.6964 20.1957 20.8211 22.0711C18.9457 23.9464 16.4022 25 13.75 25V25ZM17.625 15.7875L15 14.275V8.75C15 8.41848 14.8683 8.10054 14.6339 7.86612C14.3995 7.6317 14.0815 7.5 13.75 7.5C13.4185 7.5 13.1005 7.6317 12.8661 7.86612C12.6317 8.10054 12.5 8.41848 12.5 8.75V15C12.5 15 12.5 15.1 12.5 15.15C12.5074 15.2361 12.5285 15.3205 12.5625 15.4C12.5882 15.4742 12.6218 15.5454 12.6625 15.6125C12.6967 15.6835 12.7386 15.7506 12.7875 15.8125L12.9875 15.975L13.1 16.0875L16.35 17.9625C16.5405 18.0705 16.756 18.1265 16.975 18.125C17.2518 18.1269 17.5214 18.037 17.7415 17.8692C17.9616 17.7014 18.1198 17.4653 18.1913 17.1979C18.2628 16.9305 18.2435 16.647 18.1365 16.3917C18.0295 16.1365 17.8408 15.924 17.6 15.7875H17.625Z" fill="#2E5599"/>
</svg>
